<svg width="38" height="38" viewBox="0 0 38 38" fill="none" xmlns="http://www.w3.org/2000/svg">
<circle cx="19" cy="19" r="19" fill="white"/>
<path d="M13.5159 18.8589C13.6179 18.9524 13.7513 19.004 13.8896 19.0035C14.0274 19.0032 14.16 18.9512 14.2613 18.8578C14.3626 18.7644 14.4253 18.6364 14.4368 18.4991C14.5679 17.646 14.971 16.8582 15.586 16.2528C16.201 15.6475 16.9951 15.2572 17.8499 15.14C17.9749 15.1152 18.0875 15.0479 18.1684 14.9493C18.2493 14.8508 18.2936 14.7273 18.2936 14.5998C18.2936 14.4723 18.2493 14.3487 18.1684 14.2502C18.0875 14.1517 17.9749 14.0843 17.8499 14.0596C16.9933 13.9467 16.1969 13.5578 15.5811 12.9517C14.9652 12.3456 14.5636 11.5553 14.4368 10.7004C14.4261 10.5622 14.3636 10.4331 14.2619 10.3389C14.1601 10.2447 14.0266 10.1924 13.888 10.1924C13.7494 10.1924 13.6158 10.2447 13.5141 10.3389C13.4124 10.4331 13.3499 10.5622 13.3392 10.7004C13.2081 11.5535 12.805 12.3414 12.19 12.9467C11.575 13.552 10.7809 13.9423 9.92611 14.0596C9.80107 14.0843 9.68849 14.1517 9.60757 14.2502C9.52665 14.3487 9.48242 14.4723 9.48242 14.5998C9.48242 14.7273 9.52665 14.8508 9.60757 14.9493C9.68849 15.0479 9.80107 15.1152 9.92611 15.14C10.7826 15.2528 11.5791 15.6417 12.1949 16.2478C12.8108 16.8539 13.2124 17.6442 13.3392 18.4991C13.3508 18.637 13.4139 18.7655 13.5159 18.8589Z" fill="#4A305D"/>
<path d="M23.1708 24.039C23.1083 24.0392 23.0481 24.0155 23.0023 23.9728C22.9564 23.93 22.9283 23.8714 22.9236 23.8086C22.9098 23.625 22.5363 19.2977 18.1719 18.3029C18.117 18.2906 18.068 18.2598 18.0328 18.2156C17.9977 18.1714 17.9785 18.1164 17.9785 18.0598C17.9785 18.0032 17.9977 17.9482 18.0328 17.904C18.068 17.8598 18.117 17.829 18.1719 17.8167C22.5454 16.8201 22.9202 12.3566 22.9234 12.311C22.9282 12.2483 22.9564 12.1897 23.0023 12.147C23.0482 12.1044 23.1084 12.0808 23.1708 12.0811C23.2333 12.0809 23.2936 12.1046 23.3394 12.1474C23.3853 12.1902 23.4134 12.2489 23.418 12.3117C23.4318 12.4954 23.8053 16.8226 28.1697 17.8174C28.2246 17.8297 28.2736 17.8605 28.3088 17.9047C28.3439 17.9489 28.3631 18.0039 28.3631 18.0605C28.3631 18.1172 28.3439 18.1721 28.3088 18.2163C28.2736 18.2605 28.2246 18.2914 28.1697 18.3037C23.7962 19.3002 23.4214 23.7638 23.4182 23.8093C23.4134 23.872 23.3851 23.9305 23.3393 23.9732C23.2934 24.0158 23.2332 24.0393 23.1708 24.039ZM22.3395 20.9536C23.0023 17.3596 22.9234 18.2156 23.0023 16.5653C23.4049 15.1866 24.5938 17.1138 27.2245 18.06C24.6106 17.1198 26.3841 17.8167 23.1708 17.3596C22.6673 19.2133 23.0023 17.904 22.3395 20.9536Z" fill="#4A305D"/>
<path d="M14.208 23.3414C14.3319 23.4653 14.5 23.5349 14.6753 23.5349C14.8505 23.5349 15.0186 23.4653 15.1426 23.3414C15.2665 23.2175 15.3361 23.0494 15.3361 22.8741V21.5524C15.3361 21.3772 15.2665 21.2091 15.1426 21.0852C15.0186 20.9612 14.8505 20.8916 14.6753 20.8916C14.5 20.8916 14.3319 20.9612 14.208 21.0852C14.0841 21.2091 14.0144 21.3772 14.0144 21.5524V22.8741C14.0144 23.0494 14.0841 23.2175 14.208 23.3414Z" fill="#4A305D"/>
<path d="M12.0319 24.8566H13.3536C13.5289 24.8566 13.697 24.787 13.8209 24.6631C13.9448 24.5391 14.0144 24.371 14.0144 24.1958C14.0144 24.0205 13.9448 23.8524 13.8209 23.7285C13.697 23.6046 13.5289 23.5349 13.3536 23.5349H12.0319C11.8567 23.5349 11.6886 23.6046 11.5646 23.7285C11.4407 23.8524 11.3711 24.0205 11.3711 24.1958C11.3711 24.371 11.4407 24.5391 11.5646 24.6631C11.6886 24.787 11.8567 24.8566 12.0319 24.8566Z" fill="#4A305D"/>
<path d="M14.208 27.3064C14.3319 27.4303 14.5 27.5 14.6753 27.5C14.8505 27.5 15.0186 27.4303 15.1426 27.3064C15.2665 27.1825 15.3361 27.0144 15.3361 26.8391V25.5175C15.3361 25.3422 15.2665 25.1741 15.1426 25.0502C15.0186 24.9262 14.8505 24.8566 14.6753 24.8566C14.5 24.8566 14.3319 24.9262 14.208 25.0502C14.0841 25.1741 14.0144 25.3422 14.0144 25.5175V26.8391C14.0144 27.0144 14.0841 27.1825 14.208 27.3064Z" fill="#4A305D"/>
<path d="M15.9969 24.8566H17.3186C17.4939 24.8566 17.662 24.787 17.7859 24.6631C17.9098 24.5391 17.9795 24.371 17.9795 24.1958C17.9795 24.0205 17.9098 23.8524 17.7859 23.7285C17.662 23.6046 17.4939 23.5349 17.3186 23.5349H15.9969C15.8217 23.5349 15.6536 23.6046 15.5297 23.7285C15.4057 23.8524 15.3361 24.0205 15.3361 24.1958C15.3361 24.371 15.4057 24.5391 15.5297 24.6631C15.6536 24.787 15.8217 24.8566 15.9969 24.8566Z" fill="#4A305D"/>
</svg>
