<svg width="37" height="35" viewBox="0 0 37 35" fill="none" xmlns="http://www.w3.org/2000/svg">
<path d="M14.3506 23.6621L14.3506 17.5118" stroke="white" stroke-width="1.5" stroke-linecap="round"/>
<path d="M22.5508 23.6621L22.5508 17.5118" stroke="white" stroke-width="1.5" stroke-linecap="round"/>
<path d="M0 7.26074H36.9018H34.7515C32.8659 7.26074 31.923 7.26074 31.3373 7.84653C30.7515 8.43232 30.7515 9.37512 30.7515 11.2607V29.912C30.7515 31.7976 30.7515 32.7404 30.1657 33.3262C29.5799 33.912 28.6371 33.912 26.7515 33.912H10.1503C8.26468 33.912 7.32187 33.912 6.73608 33.3262C6.15029 32.7404 6.15029 31.7976 6.15029 29.912V11.2607C6.15029 9.37512 6.15029 8.43232 5.56451 7.84653C4.97872 7.26074 4.03591 7.26074 2.15029 7.26074H0Z" stroke="white" stroke-width="1.5" stroke-linecap="round"/>
<path d="M14.4901 1.75975C14.7237 1.54179 15.2385 1.34919 15.9545 1.21182C16.6706 1.07446 17.548 1 18.4506 1C19.3532 1 20.2305 1.07446 20.9466 1.21182C21.6627 1.34919 22.1775 1.54179 22.4111 1.75975" stroke="white" stroke-width="1.5" stroke-linecap="round"/>
</svg>
