<svg width="1407" height="1103" viewBox="0 0 1407 1103" fill="none" xmlns="http://www.w3.org/2000/svg">
<g clip-path="url(#clip0_773_2154)">
<rect width="1407" height="1103" fill="#48335C"/>
<path fill-rule="evenodd" clip-rule="evenodd" d="M-206.848 703.066C-17.8079 703.066 145.521 772.991 222.529 874.341C330.987 828.456 472.378 800.699 627.021 800.699C759.065 800.699 881.448 820.936 981.916 855.416C1095.03 783.547 1272.67 737.238 1472.41 737.238C1814.1 737.238 2091.09 872.745 2091.09 1039.9C2091.09 1090.09 2066.12 1137.42 2021.93 1179.09L2021.93 2026L-614.16 2026L-614.16 1162.88C-658.058 1117.07 -683.343 1063.28 -683.343 1005.73C-683.343 838.574 -470.009 703.066 -206.848 703.066Z" fill="url(#paint0_linear_773_2154)"/>
<path d="M578.368 610.19C578.368 610.19 477.952 572.517 456.457 670.23L477.673 666.001C477.673 666.001 452.813 694.591 444 748.811C497.919 738.312 525.72 712.574 525.72 712.574L522.153 733.912C619.151 709.383 578.368 610.19 578.368 610.19Z" fill="url(#paint1_linear_773_2154)"/>
<path d="M578.367 610.185C578.367 610.185 515.73 586.686 502.324 647.636L515.557 644.997C515.557 644.997 500.05 662.831 494.553 696.651C528.186 690.102 545.526 674.046 545.526 674.046L543.302 687.356C603.806 672.058 578.367 610.185 578.367 610.185Z" fill="url(#paint2_linear_773_2154)"/>
<path d="M649.343 605.201L580.82 537.406L599.703 518.406L668.226 586.203L649.343 605.201Z" fill="url(#paint3_linear_773_2154)"/>
<path d="M632.826 428.413C632.826 428.413 569.184 423.712 543.073 449.972C514.897 478.308 491.561 512.981 472.718 562.539C462.664 588.985 489.215 561.651 506.827 545.551C537.661 517.365 552.862 517.937 582.218 524.662C582.218 524.662 598.047 492.271 632.826 428.413Z" fill="url(#paint4_linear_773_2154)"/>
<path opacity="0.33" d="M632.826 428.413C632.826 428.413 569.185 423.712 543.073 449.972C514.897 478.308 491.561 512.981 472.719 562.539C470.833 567.498 470.235 570.566 470.623 572.171C470.623 572.171 497.712 509.393 527.391 478.673C557.069 447.952 576.855 436.468 632.826 428.413Z" fill="white"/>
<path d="M758.515 552.771C758.515 552.771 763.763 616.228 737.665 642.502C709.502 670.853 674.948 694.426 625.441 713.642C599.022 723.897 626.192 697.176 642.18 679.467C670.167 648.466 669.467 633.306 662.481 604.073C662.481 604.073 694.808 588.008 758.515 552.771Z" fill="url(#paint5_linear_773_2154)"/>
<path d="M958.926 313.34C969.506 244.757 956.022 228.626 956.022 228.626C956.022 228.626 939.74 215.308 871.095 226.44C798.591 238.197 752.571 282.776 721.233 313.768C680.688 353.864 613.821 446.127 582.214 524.664L622.551 564.159L662.474 604.072C740.918 571.875 832.823 504.384 872.667 463.595C903.463 432.068 947.752 385.778 958.926 313.34Z" fill="url(#paint6_linear_773_2154)"/>
<path d="M592.45 534.679L622.556 564.156L662.479 604.069C740.923 571.872 832.828 504.381 872.672 463.592C903.468 432.064 947.759 385.773 958.931 313.337C969.511 244.754 956.027 228.623 956.027 228.623" fill="url(#paint7_linear_773_2154)"/>
<path opacity="0.09" d="M587.924 530.254L656.607 598.206" stroke="black" stroke-width="1.8919" stroke-miterlimit="10"/>
<path d="M582.214 524.665L622.551 564.16L662.474 604.073C678.328 597.566 694.734 589.602 711.146 580.721L605.208 475.906C596.448 492.358 588.603 508.793 582.214 524.665Z" fill="url(#paint8_linear_773_2154)"/>
<path d="M689.797 500.834L662.476 604.075L654.692 598.953L649.342 605.201L622.733 578.875L689.797 500.834Z" fill="url(#paint9_linear_773_2154)"/>
<path d="M811.519 245.197L940.635 372.945" stroke="black" stroke-width="1.8919" stroke-miterlimit="10"/>
<path d="M956.027 228.626C956.027 228.626 939.745 215.308 871.1 226.44C848.857 230.048 829.116 236.752 811.519 245.197L940.635 372.944C948.951 355.315 955.503 335.563 958.931 313.34C969.511 244.759 956.027 228.626 956.027 228.626Z" fill="url(#paint10_linear_773_2154)"/>
<mask id="mask0_773_2154" style="mask-type:luminance" maskUnits="userSpaceOnUse" x="582" y="222" width="381" height="383">
<path d="M958.928 313.338C969.508 244.755 956.024 228.624 956.024 228.624C956.024 228.624 939.742 215.306 871.097 226.438C798.593 238.195 752.573 282.774 721.235 313.766C680.69 353.862 613.823 446.125 582.216 524.662L622.553 564.157L662.476 604.07C740.92 571.873 832.825 504.382 872.669 463.593C903.465 432.066 947.754 385.776 958.928 313.338Z" fill="white"/>
</mask>
<g mask="url(#mask0_773_2154)">
<path d="M941.167 400.496L785.724 248.233L792.279 241.539L947.724 393.802L941.167 400.496Z" fill="url(#paint11_linear_773_2154)"/>
</g>
<mask id="mask1_773_2154" style="mask-type:luminance" maskUnits="userSpaceOnUse" x="582" y="222" width="381" height="383">
<path d="M958.928 313.338C969.508 244.755 956.024 228.624 956.024 228.624C956.024 228.624 939.742 215.306 871.097 226.438C798.593 238.195 752.573 282.774 721.235 313.766C680.69 353.862 613.823 446.125 582.216 524.662L622.553 564.157L662.476 604.07C740.92 571.873 832.825 504.382 872.669 463.593C903.465 432.066 947.754 385.776 958.928 313.338Z" fill="white"/>
</mask>
<g mask="url(#mask1_773_2154)">
<path d="M931.628 412.873L776.184 260.61L780.558 256.146L936.002 408.409L931.628 412.873Z" fill="url(#paint12_linear_773_2154)"/>
</g>
<path opacity="0.09" d="M605.2 475.902L711.151 580.724" stroke="black" stroke-width="1.8919" stroke-miterlimit="10"/>
<path d="M689.246 497.054C689.246 497.054 683.332 487.894 626.166 545.415C568.999 602.934 520.246 658.034 524.789 662.528C529.332 667.023 584.143 617.918 641.308 560.399C698.475 502.878 689.246 497.054 689.246 497.054Z" fill="url(#paint13_linear_773_2154)"/>
<path opacity="0.33" d="M689.246 497.054C689.246 497.054 683.332 487.894 626.166 545.415C568.999 602.934 520.246 658.034 524.789 662.528C524.789 662.528 540.772 639.563 583.672 593.873C626.575 548.184 675.77 498.251 689.246 497.054Z" fill="white"/>
<path d="M824.542 462.845C852.209 434.947 852.023 389.905 824.124 362.238C796.228 334.57 751.186 334.759 723.517 362.655C695.85 390.554 696.038 435.596 723.935 463.263C751.833 490.928 796.876 490.742 824.542 462.845Z" fill="url(#paint14_linear_773_2154)"/>
<path d="M823.72 460.432C851.234 432.689 851.047 387.898 823.306 360.386C795.566 332.875 750.773 333.059 723.26 360.801C695.748 388.542 695.935 433.335 723.674 460.847C751.416 488.359 796.208 488.172 823.72 460.432Z" fill="#D4D4D4"/>
<path d="M823.972 460.686C851.147 433.285 850.963 389.042 823.562 361.869C796.162 334.694 751.92 334.879 724.745 362.278C697.57 389.68 697.755 433.921 725.154 461.096C752.554 488.271 796.797 488.087 823.972 460.686Z" fill="url(#paint15_linear_773_2154)"/>
<path d="M734.642 449.391C713.263 428.188 713.12 393.543 734.322 372.164C755.524 350.785 790.17 350.641 811.549 371.844C832.928 393.046 833.072 427.691 811.869 449.07C790.667 470.45 756.021 470.593 734.642 449.391Z" fill="#76C9F0"/>
<path d="M736.595 448.877C716.085 428.535 715.948 395.297 736.288 374.786C756.63 354.276 789.869 354.137 810.379 374.479C830.89 394.82 831.027 428.058 810.686 448.57C790.344 469.081 757.106 469.22 736.595 448.877Z" fill="url(#paint16_linear_773_2154)"/>
<mask id="mask2_773_2154" style="mask-type:luminance" maskUnits="userSpaceOnUse" x="721" y="359" width="105" height="106">
<path d="M736.598 448.87C716.088 428.528 715.951 395.289 736.291 374.778C756.633 354.268 789.872 354.129 810.382 374.471C830.893 394.812 831.03 428.05 810.689 448.562C790.347 469.073 757.109 469.212 736.598 448.87Z" fill="white"/>
</mask>
<g mask="url(#mask2_773_2154)">
<path d="M821.767 370.236L705.631 421.525L713.957 440.374L830.091 389.084L821.767 370.236Z" fill="url(#paint17_linear_773_2154)"/>
</g>
<mask id="mask3_773_2154" style="mask-type:luminance" maskUnits="userSpaceOnUse" x="721" y="359" width="105" height="106">
<path d="M736.598 448.87C716.088 428.528 715.951 395.289 736.291 374.778C756.633 354.268 789.872 354.129 810.382 374.471C830.893 394.812 831.03 428.05 810.689 448.562C790.347 469.073 757.109 469.212 736.598 448.87Z" fill="white"/>
</mask>
<g mask="url(#mask3_773_2154)">
<path d="M833.352 399.393L717.218 450.681L721.407 460.168L837.541 408.879L833.352 399.393Z" fill="url(#paint18_linear_773_2154)"/>
</g>
<path d="M728.869 371.26C729.208 369.647 728.176 368.065 726.564 367.726C724.951 367.388 723.369 368.42 723.03 370.032C722.692 371.645 723.724 373.227 725.335 373.565C726.949 373.905 728.531 372.872 728.869 371.26Z" fill="#A3A3A3"/>
<path d="M718.494 387.598C718.833 385.985 717.8 384.403 716.189 384.064C714.576 383.726 712.994 384.758 712.655 386.369C712.317 387.983 713.349 389.565 714.96 389.903C716.572 390.243 718.155 389.211 718.494 387.598Z" fill="#A3A3A3"/>
<path d="M740.625 359.981C740.963 358.368 739.931 356.786 738.32 356.447C736.706 356.109 735.124 357.141 734.786 358.752C734.447 360.366 735.48 361.947 737.091 362.286C738.703 362.626 740.285 361.594 740.625 359.981Z" fill="#A3A3A3"/>
<path d="M715.818 422.996C714.763 421.73 712.882 421.558 711.616 422.613C710.349 423.669 710.177 425.549 711.232 426.816C712.288 428.082 714.168 428.254 715.435 427.199C716.702 426.144 716.873 424.263 715.818 422.996Z" fill="#A3A3A3"/>
<path d="M722.203 441.268C721.148 440.001 719.267 439.83 718 440.885C716.734 441.94 716.562 443.821 717.617 445.087C718.672 446.354 720.553 446.526 721.82 445.47C723.086 444.415 723.258 442.534 722.203 441.268Z" fill="#A3A3A3"/>
<path d="M714.609 403.877C713.554 402.611 711.673 402.439 710.407 403.494C709.14 404.549 708.968 406.43 710.024 407.697C711.079 408.963 712.959 409.135 714.226 408.08C715.493 407.025 715.664 405.142 714.609 403.877Z" fill="#A3A3A3"/>
<path d="M747.161 465.474C745.515 465.527 744.222 466.906 744.275 468.552C744.328 470.199 745.707 471.491 747.353 471.439C748.999 471.386 750.292 470.007 750.239 468.361C750.185 466.714 748.808 465.421 747.161 465.474Z" fill="#A3A3A3"/>
<path d="M765.492 471.681C763.845 471.734 762.552 473.113 762.605 474.759C762.658 476.406 764.035 477.699 765.683 477.646C767.329 477.593 768.622 476.214 768.569 474.568C768.517 472.921 767.138 471.628 765.492 471.681Z" fill="#A3A3A3"/>
<path d="M731.332 454.671C729.686 454.724 728.393 456.103 728.446 457.749C728.499 459.396 729.878 460.689 731.524 460.636C733.17 460.583 734.463 459.204 734.41 457.558C734.357 455.912 732.98 454.619 731.332 454.671Z" fill="#A3A3A3"/>
<path d="M800.303 466.517C799.322 467.841 799.601 469.71 800.927 470.69C802.251 471.669 804.12 471.39 805.1 470.065C806.081 468.741 805.8 466.872 804.476 465.893C803.151 464.912 801.282 465.191 800.303 466.517Z" fill="#A3A3A3"/>
<path d="M815.61 456.131C814.629 457.455 814.91 459.324 816.234 460.304C817.558 461.284 819.428 461.004 820.407 459.679C821.388 458.355 821.107 456.486 819.783 455.507C818.458 454.527 816.591 454.806 815.61 456.131Z" fill="#A3A3A3"/>
<path d="M782.225 471.596C781.244 472.921 781.525 474.79 782.849 475.769C784.174 476.75 786.043 476.469 787.022 475.145C788.003 473.821 787.722 471.951 786.398 470.972C785.072 469.991 783.204 470.272 782.225 471.596Z" fill="#A3A3A3"/>
<path d="M831.488 426.283C831.883 427.883 833.501 428.859 835.099 428.464C836.699 428.069 837.675 426.451 837.281 424.851C836.886 423.251 835.268 422.275 833.669 422.67C832.069 423.066 831.093 424.683 831.488 426.283Z" fill="#A3A3A3"/>
<path d="M833.492 408.558C833.887 410.158 835.505 411.134 837.103 410.74C838.703 410.345 839.679 408.727 839.285 407.128C838.89 405.528 837.272 404.552 835.673 404.947C834.073 405.342 833.097 406.958 833.492 408.558Z" fill="#A3A3A3"/>
<path d="M825.414 443.999C825.808 445.6 827.427 446.575 829.025 446.181C830.625 445.786 831.601 444.168 831.206 442.568C830.812 440.968 829.194 439.992 827.595 440.386C825.995 440.783 825.019 442.401 825.414 443.999Z" fill="#A3A3A3"/>
<path d="M823.212 375.877C824.716 376.549 826.482 375.874 827.154 374.37C827.826 372.865 827.15 371.1 825.646 370.428C824.142 369.756 822.376 370.431 821.704 371.936C821.032 373.442 821.708 375.205 823.212 375.877Z" fill="#A3A3A3"/>
<path d="M809.667 362.409C811.171 363.081 812.937 362.405 813.609 360.901C814.281 359.397 813.605 357.632 812.101 356.96C810.597 356.287 808.832 356.961 808.16 358.467C807.487 359.973 808.163 361.737 809.667 362.409Z" fill="#A3A3A3"/>
<path d="M831.134 392.51C832.638 393.182 834.403 392.508 835.076 391.002C835.748 389.498 835.072 387.733 833.568 387.061C832.064 386.389 830.298 387.064 829.626 388.568C828.954 390.073 829.63 391.838 831.134 392.51Z" fill="#A3A3A3"/>
<path d="M774.704 351.332C776.164 350.569 776.73 348.766 775.967 347.306C775.205 345.846 773.401 345.28 771.942 346.043C770.482 346.805 769.915 348.609 770.678 350.068C771.441 351.53 773.243 352.095 774.704 351.332Z" fill="#A3A3A3"/>
<path d="M756.198 354.566C757.658 353.803 758.224 352 757.462 350.54C756.699 349.08 754.895 348.514 753.436 349.277C751.976 350.04 751.41 351.843 752.172 353.303C752.935 354.764 754.737 355.331 756.198 354.566Z" fill="#A3A3A3"/>
<path d="M794.012 354.059C795.471 353.296 796.038 351.492 795.275 350.033C794.512 348.571 792.709 348.007 791.249 348.769C789.789 349.532 789.223 351.336 789.986 352.795C790.749 354.257 792.552 354.823 794.012 354.059Z" fill="#A3A3A3"/>
<path d="M728.243 370.631C728.582 369.018 727.55 367.436 725.938 367.097C724.325 366.759 722.743 367.791 722.404 369.403C722.066 371.016 723.098 372.598 724.709 372.936C726.323 373.275 727.905 372.243 728.243 370.631Z" fill="#D4D4D4"/>
<path d="M717.867 386.969C718.206 385.356 717.174 383.774 715.562 383.435C713.949 383.097 712.367 384.129 712.028 385.741C711.69 387.354 712.722 388.936 714.333 389.274C715.945 389.614 717.529 388.582 717.867 386.969Z" fill="#D4D4D4"/>
<path d="M739.998 359.348C740.336 357.736 739.304 356.153 737.693 355.814C736.079 355.476 734.498 356.508 734.159 358.119C733.82 359.733 734.853 361.315 736.464 361.653C738.076 361.993 739.658 360.961 739.998 359.348Z" fill="#D4D4D4"/>
<path d="M715.192 422.37C714.137 421.103 712.256 420.931 710.99 421.986C709.723 423.042 709.551 424.922 710.607 426.189C711.662 427.455 713.543 427.627 714.809 426.572C716.076 425.518 716.247 423.636 715.192 422.37Z" fill="#D4D4D4"/>
<path d="M721.576 440.639C720.521 439.373 718.64 439.201 717.373 440.256C716.107 441.311 715.935 443.192 716.99 444.458C718.045 445.725 719.926 445.897 721.193 444.842C722.459 443.786 722.631 441.906 721.576 440.639Z" fill="#D4D4D4"/>
<path d="M713.983 403.248C712.928 401.982 711.047 401.81 709.781 402.865C708.514 403.92 708.342 405.801 709.398 407.068C710.453 408.334 712.334 408.506 713.6 407.451C714.867 406.396 715.038 404.515 713.983 403.248Z" fill="#D4D4D4"/>
<path d="M746.535 464.845C744.889 464.898 743.596 466.275 743.649 467.923C743.702 469.57 745.081 470.863 746.727 470.81C748.373 470.757 749.666 469.378 749.613 467.732C749.559 466.085 748.182 464.792 746.535 464.845Z" fill="#D4D4D4"/>
<path d="M764.866 471.05C763.219 471.103 761.926 472.482 761.979 474.128C762.032 475.775 763.411 477.068 765.057 477.015C766.703 476.962 767.996 475.585 767.944 473.937C767.891 472.291 766.512 470.998 764.866 471.05Z" fill="#D4D4D4"/>
<path d="M730.707 454.045C729.061 454.097 727.768 455.476 727.821 457.123C727.874 458.769 729.253 460.062 730.899 460.009C732.545 459.956 733.838 458.577 733.785 456.931C733.732 455.283 732.355 453.99 730.707 454.045Z" fill="#D4D4D4"/>
<path d="M799.676 465.888C798.695 467.212 798.976 469.081 800.3 470.061C801.625 471.042 803.494 470.761 804.473 469.436C805.454 468.112 805.173 466.243 803.849 465.264C802.525 464.283 800.655 464.562 799.676 465.888Z" fill="#D4D4D4"/>
<path d="M814.983 455.504C814.002 456.828 814.283 458.697 815.607 459.677C816.931 460.657 818.801 460.377 819.78 459.052C820.761 457.728 820.48 455.859 819.156 454.88C817.831 453.9 815.964 454.18 814.983 455.504Z" fill="#D4D4D4"/>
<path d="M781.6 470.966C780.619 472.29 780.9 474.16 782.224 475.139C783.549 476.12 785.418 475.839 786.397 474.515C787.378 473.19 787.097 471.321 785.773 470.342C784.45 469.361 782.581 469.64 781.6 470.966Z" fill="#D4D4D4"/>
<path d="M830.861 425.65C831.256 427.25 832.874 428.226 834.472 427.831C836.072 427.437 837.048 425.818 836.654 424.218C836.259 422.618 834.641 421.642 833.042 422.037C831.442 422.433 830.466 424.05 830.861 425.65Z" fill="#D4D4D4"/>
<path d="M832.866 407.931C833.26 409.531 834.879 410.507 836.477 410.113C838.077 409.718 839.053 408.1 838.659 406.501C838.264 404.901 836.646 403.925 835.047 404.32C833.449 404.715 832.471 406.331 832.866 407.931Z" fill="#D4D4D4"/>
<path d="M824.788 443.371C825.182 444.971 826.801 445.947 828.399 445.552C829.999 445.157 830.975 443.539 830.58 441.939C830.186 440.339 828.568 439.363 826.969 439.758C825.369 440.154 824.393 441.772 824.788 443.371Z" fill="#D4D4D4"/>
<path d="M822.586 375.25C824.09 375.922 825.856 375.247 826.528 373.743C827.2 372.238 826.524 370.473 825.02 369.801C823.516 369.129 821.751 369.804 821.078 371.309C820.406 372.815 821.082 374.578 822.586 375.25Z" fill="#D4D4D4"/>
<path d="M809.04 361.78C810.544 362.452 812.31 361.778 812.982 360.272C813.654 358.768 812.978 357.003 811.474 356.331C809.97 355.659 808.205 356.332 807.533 357.838C806.86 359.344 807.536 361.108 809.04 361.78Z" fill="#D4D4D4"/>
<path d="M830.508 391.881C832.012 392.553 833.777 391.878 834.45 390.374C835.122 388.869 834.448 387.104 832.942 386.432C831.438 385.76 829.672 386.435 829 387.94C828.328 389.444 829.004 391.209 830.508 391.881Z" fill="#D4D4D4"/>
<path d="M774.077 350.703C775.537 349.94 776.103 348.137 775.34 346.677C774.578 345.217 772.774 344.651 771.315 345.414C769.855 346.177 769.288 347.98 770.051 349.44C770.814 350.901 772.616 351.466 774.077 350.703Z" fill="#D4D4D4"/>
<path d="M755.572 353.937C757.032 353.174 757.598 351.371 756.836 349.911C756.073 348.452 754.269 347.885 752.81 348.648C751.35 349.411 750.784 351.214 751.547 352.674C752.309 354.134 754.111 354.7 755.572 353.937Z" fill="#D4D4D4"/>
<path d="M793.385 353.431C794.845 352.668 795.411 350.865 794.648 349.405C793.885 347.946 792.082 347.379 790.622 348.142C789.163 348.905 788.596 350.708 789.359 352.168C790.122 353.629 791.925 354.194 793.385 353.431Z" fill="#D4D4D4"/>
<path d="M727.075 367.839L723.137 371.777L723.558 372.199L727.497 368.26L727.075 367.839Z" fill="#B9B9B9"/>
<path d="M716.702 384.181L712.764 388.119L713.185 388.541L717.124 384.602L716.702 384.181Z" fill="#B9B9B9"/>
<path d="M738.836 356.558L734.897 360.496L735.319 360.918L739.257 356.979L738.836 356.558Z" fill="#B9B9B9"/>
<path d="M714.652 422.105L710.714 426.043L711.135 426.464L715.074 422.526L714.652 422.105Z" fill="#B9B9B9"/>
<path d="M721.037 440.36L717.099 444.299L717.52 444.72L721.459 440.782L721.037 440.36Z" fill="#B9B9B9"/>
<path d="M713.443 402.98L709.505 406.918L709.926 407.339L713.865 403.401L713.443 402.98Z" fill="#B9B9B9"/>
<path d="M748.385 465.651L744.446 469.59L744.868 470.011L748.806 466.073L748.385 465.651Z" fill="#B9B9B9"/>
<path d="M766.715 471.853L762.776 475.791L763.198 476.213L767.136 472.274L766.715 471.853Z" fill="#B9B9B9"/>
<path d="M732.558 454.845L728.619 458.783L729.041 459.205L732.979 455.266L732.558 454.845Z" fill="#B9B9B9"/>
<path d="M803.828 465.482L799.89 469.42L800.311 469.841L804.25 465.903L803.828 465.482Z" fill="#B9B9B9"/>
<path d="M819.132 455.083L815.193 459.021L815.615 459.443L819.553 455.505L819.132 455.083Z" fill="#B9B9B9"/>
<path d="M785.752 470.562L781.813 474.5L782.235 474.922L786.173 470.983L785.752 470.562Z" fill="#B9B9B9"/>
<path d="M835.512 422.759L831.573 426.697L831.995 427.119L835.933 423.18L835.512 422.759Z" fill="#B9B9B9"/>
<path d="M837.516 405.034L833.577 408.973L833.999 409.394L837.937 405.456L837.516 405.034Z" fill="#B9B9B9"/>
<path d="M829.441 440.487L825.503 444.426L825.924 444.847L829.863 440.909L829.441 440.487Z" fill="#B9B9B9"/>
<path d="M825.556 370.343L821.617 374.281L822.039 374.703L825.977 370.764L825.556 370.343Z" fill="#B9B9B9"/>
<path d="M812.015 356.874L808.076 360.812L808.498 361.234L812.436 357.296L812.015 356.874Z" fill="#B9B9B9"/>
<path d="M833.477 386.978L829.539 390.916L829.961 391.338L833.899 387.399L833.477 386.978Z" fill="#B9B9B9"/>
<path d="M774.448 345.878L770.51 349.816L770.931 350.238L774.87 346.3L774.448 345.878Z" fill="#B9B9B9"/>
<path d="M755.944 349.118L752.006 353.057L752.427 353.478L756.366 349.54L755.944 349.118Z" fill="#B9B9B9"/>
<path d="M793.759 348.609L789.82 352.547L790.242 352.968L794.18 349.03L793.759 348.609Z" fill="#B9B9B9"/>
<path opacity="0.33" d="M956.022 228.626C956.022 228.626 939.74 215.308 871.095 226.44C798.591 238.197 752.571 282.776 721.233 313.768C680.688 353.864 613.821 446.127 582.214 524.664C582.214 524.664 728.104 218.598 956.022 228.626Z" fill="white"/>
<path opacity="0.33" d="M590.569 532.787L583.352 539.878L580.82 537.404L587.926 530.254L590.569 532.787Z" fill="white"/>
<g opacity="0.48">
<mask id="mask4_773_2154" style="mask-type:luminance" maskUnits="userSpaceOnUse" x="582" y="222" width="381" height="383">
<path d="M958.928 313.338C969.508 244.755 956.024 228.624 956.024 228.624C956.024 228.624 939.742 215.306 871.097 226.438C798.593 238.195 752.573 282.774 721.235 313.766C688.885 345.757 639.781 410.956 605.197 475.898C596.435 492.351 588.605 508.786 582.216 524.662L622.553 564.157L662.476 604.07C740.92 571.873 832.825 504.382 872.669 463.593C903.465 432.066 947.754 385.776 958.928 313.338Z" fill="white"/>
</mask>
<g mask="url(#mask4_773_2154)">
<path d="M662.478 604.069C662.478 604.069 953.545 456.552 956.025 228.623L1038.17 264.674L766.323 683.296C766.323 683.296 711.524 662.717 662.478 604.069Z" fill="url(#paint19_linear_773_2154)"/>
</g>
</g>
<path d="M662.479 604.073L668.227 624.984C668.227 624.984 724.203 597.387 758.515 552.771C758.515 552.771 696.556 589.932 662.479 604.073Z" fill="url(#paint20_linear_773_2154)"/>
<path opacity="0.33" d="M637.123 687.98C654.331 671.124 660.785 654.838 661.913 651.727C661.656 652.38 661.074 653.665 659.813 655.785C655.975 662.835 650.288 670.482 642.18 679.463C631.848 690.908 616.863 706.105 614.675 712.664C614.267 714.057 614.472 714.952 615.1 715.52C615.104 715.524 615.106 715.529 615.111 715.53C615.121 715.491 618.031 706.681 637.123 687.98Z" fill="white"/>
</g>
<defs>
<linearGradient id="paint0_linear_773_2154" x1="701.798" y1="601.462" x2="701.798" y2="1105.34" gradientUnits="userSpaceOnUse">
<stop stop-color="white"/>
<stop offset="1" stop-color="white"/>
</linearGradient>
<linearGradient id="paint1_linear_773_2154" x1="406.012" y1="777.519" x2="576.481" y2="616.948" gradientUnits="userSpaceOnUse">
<stop stop-color="#FF8533"/>
<stop offset="0.9964" stop-color="#FFD052"/>
</linearGradient>
<linearGradient id="paint2_linear_773_2154" x1="483.919" y1="704.764" x2="588.995" y2="601.383" gradientUnits="userSpaceOnUse">
<stop offset="0.0036" stop-color="#FFD052"/>
<stop offset="1" stop-color="#FFE9AE"/>
</linearGradient>
<linearGradient id="paint3_linear_773_2154" x1="680.142" y1="652.718" x2="581.776" y2="491.928" gradientUnits="userSpaceOnUse">
<stop stop-color="#767B7F"/>
<stop offset="1" stop-color="#A3A3A3"/>
</linearGradient>
<linearGradient id="paint4_linear_773_2154" x1="533.408" y1="479.558" x2="691.036" y2="659.705" gradientUnits="userSpaceOnUse">
<stop offset="0.0036" stop-color="#F02E54"/>
<stop offset="1" stop-color="#8F1931"/>
</linearGradient>
<linearGradient id="paint5_linear_773_2154" x1="700.262" y1="703.156" x2="649.602" y2="447.872" gradientUnits="userSpaceOnUse">
<stop offset="0.0036" stop-color="#F02E54"/>
<stop offset="1" stop-color="#8F1931"/>
</linearGradient>
<linearGradient id="paint6_linear_773_2154" x1="746.481" y1="322.684" x2="863.096" y2="598.106" gradientUnits="userSpaceOnUse">
<stop offset="0.0036" stop-color="#EEF4FA"/>
<stop offset="1" stop-color="#CDDEED"/>
</linearGradient>
<linearGradient id="paint7_linear_773_2154" x1="762.41" y1="353.218" x2="861.342" y2="586.876" gradientUnits="userSpaceOnUse">
<stop offset="0.0036" stop-color="#EEF4FA"/>
<stop offset="1" stop-color="#CDDEED"/>
</linearGradient>
<linearGradient id="paint8_linear_773_2154" x1="576.354" y1="465.926" x2="681.608" y2="595.789" gradientUnits="userSpaceOnUse">
<stop stop-color="#C7C7C7"/>
<stop offset="1" stop-color="#A3A3A3"/>
</linearGradient>
<linearGradient id="paint9_linear_773_2154" x1="652.922" y1="529.545" x2="674.459" y2="595.954" gradientUnits="userSpaceOnUse">
<stop stop-color="#1D262D"/>
<stop offset="1" stop-color="#1D262D" stop-opacity="0"/>
</linearGradient>
<linearGradient id="paint10_linear_773_2154" x1="885.772" y1="250.612" x2="1103.41" y2="425.164" gradientUnits="userSpaceOnUse">
<stop offset="0.0036" stop-color="#F02E54"/>
<stop offset="1" stop-color="#8F1931"/>
</linearGradient>
<linearGradient id="paint11_linear_773_2154" x1="1163.67" y1="628.915" x2="760.757" y2="211.143" gradientUnits="userSpaceOnUse">
<stop stop-color="#8F1931"/>
<stop offset="0.9964" stop-color="#F02E54"/>
</linearGradient>
<linearGradient id="paint12_linear_773_2154" x1="1151.42" y1="640.732" x2="748.512" y2="222.959" gradientUnits="userSpaceOnUse">
<stop stop-color="#8F1931"/>
<stop offset="0.9964" stop-color="#F02E54"/>
</linearGradient>
<linearGradient id="paint13_linear_773_2154" x1="573.541" y1="531.884" x2="696.94" y2="708.392" gradientUnits="userSpaceOnUse">
<stop offset="0.0036" stop-color="#F02E54"/>
<stop offset="1" stop-color="#8F1931"/>
</linearGradient>
<linearGradient id="paint14_linear_773_2154" x1="787.682" y1="441.333" x2="832.237" y2="534.621" gradientUnits="userSpaceOnUse">
<stop stop-color="#1D262D"/>
<stop offset="0.6767" stop-color="#1D262D" stop-opacity="0.3233"/>
<stop offset="1" stop-color="#1D262D" stop-opacity="0"/>
</linearGradient>
<linearGradient id="paint15_linear_773_2154" x1="741.954" y1="335.678" x2="829.473" y2="540.419" gradientUnits="userSpaceOnUse">
<stop stop-color="#C7C7C7"/>
<stop offset="1" stop-color="#A3A3A3"/>
</linearGradient>
<linearGradient id="paint16_linear_773_2154" x1="731.529" y1="347.557" x2="834.96" y2="505.622" gradientUnits="userSpaceOnUse">
<stop stop-color="#ADE5FF"/>
<stop offset="1" stop-color="#76C9F0"/>
</linearGradient>
<linearGradient id="paint17_linear_773_2154" x1="824.019" y1="368.119" x2="713.451" y2="441.333" gradientUnits="userSpaceOnUse">
<stop stop-color="#F9FBFC"/>
<stop offset="1" stop-color="#F9FBFC" stop-opacity="0"/>
</linearGradient>
<linearGradient id="paint18_linear_773_2154" x1="838.191" y1="389.513" x2="727.622" y2="462.727" gradientUnits="userSpaceOnUse">
<stop stop-color="#F9FBFC"/>
<stop offset="1" stop-color="#F9FBFC" stop-opacity="0"/>
</linearGradient>
<linearGradient id="paint19_linear_773_2154" x1="1037.72" y1="560.246" x2="799.257" y2="411.333" gradientUnits="userSpaceOnUse">
<stop stop-color="#1D262D"/>
<stop offset="1" stop-color="#1D262D" stop-opacity="0"/>
</linearGradient>
<linearGradient id="paint20_linear_773_2154" x1="696.529" y1="551.15" x2="721.212" y2="606.444" gradientUnits="userSpaceOnUse">
<stop stop-color="#1D262D"/>
<stop offset="1" stop-color="#1D262D" stop-opacity="0"/>
</linearGradient>
<clipPath id="clip0_773_2154">
<rect width="1407" height="1103" fill="white"/>
</clipPath>
</defs>
</svg>
