<svg width="30" height="30" viewBox="0 0 30 30" fill="none" xmlns="http://www.w3.org/2000/svg">
<rect width="30" height="30" rx="15" fill="white"/>
<path d="M18.8238 7.00028C19.0531 6.99507 19.2782 7.06363 19.468 7.1965C19.6577 7.32938 19.8026 7.52002 19.8824 7.74174C19.9623 7.96347 19.9732 8.20532 19.9136 8.43373C19.8541 8.66214 19.727 8.86565 19.55 9.01612L12.7986 14.9816L19.55 20.945C19.6724 21.0378 19.7749 21.1556 19.8511 21.2911C19.9273 21.4266 19.9756 21.577 19.9928 21.7327C20.0101 21.8883 19.996 22.0459 19.9515 22.1957C19.9069 22.3455 19.8329 22.4842 19.734 22.6032C19.635 22.7221 19.5134 22.8185 19.3766 22.8867C19.2398 22.9548 19.0909 22.9931 18.9391 22.9992C18.7873 23.0052 18.6359 22.9789 18.4945 22.9218C18.353 22.8648 18.2245 22.7782 18.117 22.6675L10.3872 15.8462C10.2658 15.7393 10.1683 15.6067 10.1015 15.4573C10.0346 15.3078 10 15.1451 10 14.9805C10 14.816 10.0346 14.6533 10.1015 14.5038C10.1683 14.3544 10.2658 14.2216 10.3872 14.1148L18.117 7.28694C18.3123 7.10805 18.5627 7.00661 18.8238 7.00028Z" fill="black"/>
</svg>
