<svg width="18" height="18" viewBox="0 0 18 18" fill="none" xmlns="http://www.w3.org/2000/svg">
<rect width="18" height="18" rx="9" fill="#F30000"/>
<path fill-rule="evenodd" clip-rule="evenodd" d="M8.99967 9.70707L11.8282 12.5356C11.9225 12.6267 12.0488 12.6771 12.1799 12.6759C12.311 12.6748 12.4364 12.6222 12.5291 12.5295C12.6218 12.4368 12.6744 12.3114 12.6755 12.1803C12.6766 12.0492 12.6262 11.9229 12.5352 11.8286L9.70667 9.00007L12.5352 6.17157C12.6262 6.07727 12.6766 5.95097 12.6755 5.81987C12.6744 5.68878 12.6218 5.56337 12.5291 5.47067C12.4364 5.37796 12.311 5.32538 12.1799 5.32424C12.0488 5.3231 11.9225 5.3735 11.8282 5.46457L8.99967 8.29307L6.17117 5.46457C6.07644 5.37575 5.95087 5.32726 5.82103 5.32937C5.69119 5.33147 5.56726 5.38402 5.47547 5.47587C5.38368 5.56773 5.33123 5.69169 5.32921 5.82154C5.32719 5.95138 5.37577 6.07691 5.46467 6.17157L8.29267 9.00007L5.46417 11.8286C5.41641 11.8747 5.37832 11.9299 5.35212 11.9909C5.32591 12.0519 5.31212 12.1175 5.31154 12.1839C5.31097 12.2503 5.32362 12.3161 5.34876 12.3776C5.3739 12.439 5.41102 12.4948 5.45797 12.5418C5.50492 12.5887 5.56074 12.6258 5.62219 12.651C5.68364 12.6761 5.74948 12.6888 5.81587 12.6882C5.88226 12.6876 5.94787 12.6738 6.00887 12.6476C6.06987 12.6214 6.12504 12.5833 6.17117 12.5356L8.99967 9.70707Z" fill="white"/>
</svg>
