<svg width="19" height="19" viewBox="0 0 19 19" fill="none" xmlns="http://www.w3.org/2000/svg">
<rect width="19" height="19" rx="9.5" fill="#EB3039"/>
<path d="M13.0556 6.35C13.1734 6.35 13.2865 6.39741 13.3698 6.4818C13.4532 6.56619 13.5 6.68065 13.5 6.8C13.5 6.91935 13.4532 7.03381 13.3698 7.1182C13.2865 7.20259 13.1734 7.25 13.0556 7.25H12.6111L12.6098 7.28195L12.1951 13.1639C12.1791 13.391 12.0788 13.6035 11.9143 13.7586C11.7497 13.9138 11.5333 14 11.3084 14H7.69111C7.46628 14 7.24981 13.9138 7.08528 13.7586C6.92076 13.6035 6.82041 13.391 6.80444 13.1639L6.38978 7.2824L6.38889 7.25H5.94444C5.82657 7.25 5.71352 7.20259 5.63017 7.1182C5.54683 7.03381 5.5 6.91935 5.5 6.8C5.5 6.68065 5.54683 6.56619 5.63017 6.4818C5.71352 6.39741 5.82657 6.35 5.94444 6.35H13.0556ZM10.3889 5C10.5068 5 10.6198 5.04741 10.7032 5.1318C10.7865 5.21619 10.8333 5.33065 10.8333 5.45C10.8333 5.56935 10.7865 5.68381 10.7032 5.7682C10.6198 5.85259 10.5068 5.9 10.3889 5.9H8.61111C8.49324 5.9 8.38019 5.85259 8.29684 5.7682C8.21349 5.68381 8.16667 5.56935 8.16667 5.45C8.16667 5.33065 8.21349 5.21619 8.29684 5.1318C8.38019 5.04741 8.49324 5 8.61111 5H10.3889Z" fill="white"/>
</svg>
