<svg width="23" height="23" viewBox="0 0 23 23" fill="none" xmlns="http://www.w3.org/2000/svg">
<path d="M11.5733 3.26286C11.6128 3.18394 11.6737 3.1175 11.7492 3.07106C11.8248 3.02461 11.9119 3 12.0008 3C12.0897 3 12.1768 3.02461 12.2524 3.07106C12.3279 3.1175 12.3888 3.18394 12.4283 3.26286L14.5071 7.43351C14.6438 7.70816 14.8459 7.94577 15.096 8.12589C15.346 8.306 15.6365 8.42323 15.9425 8.46748L20.5914 9.14135C20.6795 9.15399 20.7623 9.19079 20.8304 9.2476C20.8984 9.3044 20.9491 9.37894 20.9766 9.46278C21.0041 9.54661 21.0074 9.63641 20.9861 9.72201C20.9648 9.8076 20.9197 9.88559 20.856 9.94713L17.4939 13.1899C17.272 13.4038 17.106 13.6679 17.0102 13.9596C16.9144 14.2512 16.8917 14.5616 16.9441 14.8639L17.7378 19.4454C17.7533 19.5326 17.7438 19.6224 17.7103 19.7045C17.6769 19.7866 17.6207 19.8578 17.5484 19.9098C17.4761 19.9619 17.3904 19.9927 17.3012 19.9989C17.212 20.005 17.1229 19.9862 17.044 19.9446L12.8881 17.7804C12.6143 17.6378 12.3097 17.5633 12.0004 17.5633C11.691 17.5633 11.3864 17.6378 11.1126 17.7804L6.95766 19.9446C6.87877 19.9859 6.78974 20.0046 6.70069 19.9983C6.61165 19.992 6.52617 19.9611 6.45397 19.9091C6.38178 19.8571 6.32577 19.7861 6.29231 19.7041C6.25886 19.6221 6.2493 19.5325 6.26473 19.4454L7.05755 14.8647C7.11008 14.5623 7.08747 14.2518 6.99167 13.96C6.89587 13.6682 6.72976 13.4039 6.5077 13.1899L3.14561 9.94802C3.08135 9.88655 3.03581 9.80843 3.01418 9.72258C2.99256 9.63672 2.99571 9.54657 3.02329 9.4624C3.05086 9.37824 3.10175 9.30343 3.17015 9.24651C3.23856 9.18959 3.32172 9.15284 3.41018 9.14046L8.05826 8.46748C8.36452 8.42351 8.65537 8.3064 8.90575 8.12627C9.15613 7.94613 9.35851 7.70838 9.49543 7.43351L11.5733 3.26286Z" stroke="black" stroke-width="1.3" stroke-linecap="round" stroke-linejoin="round"/>
</svg>
