<svg width="18" height="19" viewBox="0 0 18 19" fill="none" xmlns="http://www.w3.org/2000/svg">
<rect y="0.5" width="18" height="18" rx="9" fill="#E15C0A"/>
<path d="M14.185 6.663L10.3389 4.54763C10.2821 4.51638 10.2183 4.5 10.1535 4.5C10.0887 4.5 10.0249 4.51638 9.9681 4.54763L6.12196 6.663C6.06166 6.6962 6.01137 6.74498 5.97635 6.80425C5.94133 6.86351 5.92285 6.93109 5.92285 6.99992C5.92285 7.06876 5.94133 7.13634 5.97635 7.1956C6.01137 7.25487 6.06166 7.30364 6.12196 7.33685L9.76887 9.34261V13.4653L8.60118 12.823L8.23042 13.4964L9.9681 14.4522C10.0249 14.4834 10.0887 14.4998 10.1535 14.4998C10.2183 14.4998 10.2821 14.4834 10.3389 14.4522L14.185 12.3368C14.2453 12.3036 14.2956 12.2549 14.3307 12.1956C14.3657 12.1363 14.3842 12.0688 14.3842 11.9999V6.99992C14.3842 6.93107 14.3657 6.86349 14.3307 6.80422C14.2956 6.74496 14.2453 6.69619 14.185 6.663ZM10.1535 5.32378L13.2015 6.99992L10.1535 8.67607L7.10542 6.99992L10.1535 5.32378ZM13.615 11.7726L10.5381 13.4649V9.34222L13.615 7.64992V11.7726Z" fill="white"/>
<path d="M6.69215 9.50067H3.61523V8.73145H6.69215V9.50067ZM7.46137 12.5776H4.38446V11.8084H7.46137V12.5776ZM8.2306 11.0391H5.15369V10.2699H8.2306V11.0391Z" fill="white"/>
</svg>
