<svg width="18" height="18" viewBox="0 0 18 18" fill="none" xmlns="http://www.w3.org/2000/svg">
<rect width="18" height="18" rx="9" fill="#7941AA"/>
<path d="M14.185 6.163L10.3389 4.04763C10.2821 4.01638 10.2183 4 10.1535 4C10.0887 4 10.0249 4.01638 9.9681 4.04763L6.12196 6.163C6.06166 6.1962 6.01137 6.24498 5.97635 6.30425C5.94133 6.36351 5.92285 6.43109 5.92285 6.49992C5.92285 6.56876 5.94133 6.63634 5.97635 6.6956C6.01137 6.75487 6.06166 6.80364 6.12196 6.83685L9.76887 8.84261V12.9653L8.60118 12.323L8.23042 12.9964L9.9681 13.9522C10.0249 13.9834 10.0887 13.9998 10.1535 13.9998C10.2183 13.9998 10.2821 13.9834 10.3389 13.9522L14.185 11.8368C14.2453 11.8036 14.2956 11.7549 14.3307 11.6956C14.3657 11.6363 14.3842 11.5688 14.3842 11.4999V6.49992C14.3842 6.43107 14.3657 6.36349 14.3307 6.30422C14.2956 6.24496 14.2453 6.19619 14.185 6.163ZM10.1535 4.82378L13.2015 6.49992L10.1535 8.17607L7.10542 6.49992L10.1535 4.82378ZM13.615 11.2726L10.5381 12.9649V8.84222L13.615 7.14992V11.2726Z" fill="white"/>
<path d="M6.69215 9.00067H3.61523V8.23145H6.69215V9.00067ZM7.46137 12.0776H4.38446V11.3084H7.46137V12.0776ZM8.2306 10.5391H5.15369V9.7699H8.2306V10.5391Z" fill="white"/>
</svg>
