<svg width="12" height="19" viewBox="0 0 12 19" fill="none" xmlns="http://www.w3.org/2000/svg">
<path d="M10.5144 0.000318331C10.7876 -0.0056912 11.0559 0.0735147 11.282 0.227046C11.5081 0.380578 11.6807 0.600846 11.7759 0.857031C11.8711 1.11322 11.8841 1.39265 11.8131 1.65657C11.7421 1.92048 11.5907 2.15562 11.3798 2.32947L3.33404 9.22215L11.3798 16.1124C11.5257 16.2196 11.6478 16.3557 11.7386 16.5123C11.8294 16.6689 11.8869 16.8427 11.9075 17.0225C11.9281 17.2024 11.9113 17.3845 11.8582 17.5576C11.8051 17.7306 11.7169 17.8909 11.599 18.0283C11.4811 18.1657 11.3361 18.2771 11.1731 18.3559C11.0101 18.4346 10.8326 18.4789 10.6517 18.4858C10.4708 18.4928 10.2905 18.4625 10.1219 18.3965C9.95329 18.3306 9.80015 18.2305 9.67203 18.1026L0.460375 10.2211C0.315717 10.0977 0.199555 9.94445 0.119904 9.77176C0.0402508 9.59907 -0.00099659 9.41111 -0.00099659 9.22094C-0.00099659 9.03077 0.0402508 8.84281 0.119904 8.67012C0.199555 8.49743 0.315717 8.34406 0.460375 8.22061L9.67203 0.331538C9.90473 0.124847 10.2032 0.0076411 10.5144 0.000318331Z" fill="black"/>
</svg>
