<svg width="18" height="18" viewBox="0 0 18 18" fill="none" xmlns="http://www.w3.org/2000/svg">
<rect width="18" height="18" rx="9" fill="#E15C0A"/>
<path d="M11.5 13C12.0523 13 12.5 12.5523 12.5 12C12.5 11.4477 12.0523 11 11.5 11C10.9477 11 10.5 11.4477 10.5 12C10.5 12.5523 10.9477 13 11.5 13Z" stroke="white" stroke-width="0.75"/>
<path d="M6.5 13C7.05228 13 7.5 12.5523 7.5 12C7.5 11.4477 7.05228 11 6.5 11C5.94772 11 5.5 11.4477 5.5 12C5.5 12.5523 5.94772 13 6.5 13Z" stroke="white" stroke-width="0.75"/>
<path d="M8.5 11.5H10.5M9.75 6.5H10.2215C10.8765 6.5 11.2045 6.5 11.482 6.6575C11.76 6.8145 11.945 7.105 12.3155 7.6855C12.5755 8.0925 12.8475 8.3885 13.231 8.651C13.617 8.916 13.801 9.0455 13.9025 9.253C14 9.452 14 9.6875 14 10.1585C14 10.78 14 11.0905 13.8255 11.288L13.8025 11.3125C13.619 11.5 13.3295 11.5 12.7515 11.5H12.5" stroke="white" stroke-width="0.75" stroke-linecap="round" stroke-linejoin="round"/>
<path d="M9.5 6.5L9.997 7.743C10.2405 8.3515 10.362 8.656 10.6165 8.828C10.8705 9 11.198 9 11.854 9H13.5M9.5 6.5C9.5 5.7925 9.5 5.439 9.29 5.22C9.08 5 8.7415 5 8.065 5H5.435C4.7585 5 4.42 5.0005 4.21 5.22C4 5.4395 4 5.793 4 6.5V10C4 10.7075 4 11.061 4.21 11.28C4.42 11.5 4.7585 11.5 5.435 11.5M9.5 6.5V11.5H7.348" stroke="white" stroke-width="0.75" stroke-linecap="round" stroke-linejoin="round"/>
</svg>
