<svg width="36" height="36" viewBox="0 0 36 36" fill="none" xmlns="http://www.w3.org/2000/svg">
<rect width="36" height="36" rx="18" fill="#48335C"/>
<path d="M14.2252 26.5997C14.9892 26.5997 15.6085 25.9804 15.6085 25.2164C15.6085 24.4524 14.9892 23.833 14.2252 23.833C13.4611 23.833 12.8418 24.4524 12.8418 25.2164C12.8418 25.9804 13.4611 26.5997 14.2252 26.5997Z" fill="white"/>
<path d="M23.9087 26.5997C24.6727 26.5997 25.2921 25.9804 25.2921 25.2164C25.2921 24.4524 24.6727 23.833 23.9087 23.833C23.1447 23.833 22.5254 24.4524 22.5254 25.2164C22.5254 25.9804 23.1447 26.5997 23.9087 26.5997Z" fill="white"/>
<path d="M13.8697 20.3752H25.1674L26.8274 12.075H12.4047L12.0385 10H8V11.3834H10.8782L12.9533 23.1419H25.2919V21.7585H14.1136L13.8697 20.3752Z" fill="white"/>
</svg>
