<svg width="64" height="64" viewBox="0 0 64 64" fill="none" xmlns="http://www.w3.org/2000/svg">
<g clip-path="url(#clip0_3069_1907)">
<circle cx="32" cy="32" r="32" fill="#F16625"/>
<path d="M52.0168 34.0633C46.8871 26.912 46.1411 21.8506 46.1411 21.8506L43.2096 20.7231L32.4612 23.3531L21.714 20.7231L18.7814 21.8506C18.7814 21.8506 16.74 27.2442 12.9051 34.0633C4.09501 49.7283 11.5224 57.0469 21.9964 59.6867H30.9448H33.9793H44.1102C54.5831 57.0469 61.4797 47.2564 52.0168 34.0633Z" fill="#454545"/>
<path d="M37.4595 48.2629H27.9561V57.9354H37.4595V48.2629Z" fill="#FDCC9B"/>
<path d="M17.4155 33.4127C17.4288 35.6305 15.641 37.4386 13.4243 37.4519C11.2047 37.467 9.3966 35.6786 9.38386 33.4607C9.37055 31.2423 11.1584 29.433 13.3768 29.4215C15.5941 29.4076 17.4016 31.1954 17.4155 33.4127Z" fill="#FDCC9B"/>
<path d="M15.7319 33.422C15.7406 34.7109 14.7011 35.7614 13.4134 35.77C12.1256 35.7764 11.0745 34.7387 11.0664 33.4497C11.0589 32.1602 12.0972 31.1109 13.3856 31.1046C14.6745 31.0953 15.7238 32.1342 15.7319 33.422Z" fill="#F4B882"/>
<path d="M56.0334 33.1854C56.0467 35.4032 54.2589 37.2125 52.0411 37.2246C49.8226 37.2391 48.0134 35.4513 48.0001 33.2334C47.9873 31.015 49.7746 29.2075 51.9936 29.1942C54.2115 29.1797 56.019 30.9681 56.0334 33.1854Z" fill="#FDCC9B"/>
<path d="M54.3476 33.1957C54.3568 34.4847 53.3174 35.5345 52.0296 35.5427C50.7418 35.549 49.6908 34.5113 49.6827 33.2224C49.6746 31.9346 50.7123 30.8841 52.0035 30.876C53.2913 30.8691 54.3406 31.9068 54.3476 33.1957Z" fill="#F4B882"/>
<path d="M51.9249 34.6171C51.9764 43.2038 44.9917 50.27 36.4057 50.3204L29.013 50.362C20.4257 50.4141 13.3595 43.4295 13.308 34.844L13.2698 28.125C13.2183 19.5378 20.2029 12.4716 28.7884 12.4212L36.1823 12.3772C44.7689 12.3274 51.8369 19.3103 51.8867 27.8976L51.9249 34.6171Z" fill="#FDCC9B"/>
<path d="M34.8599 38.8718C34.864 39.6195 33.9061 40.2325 32.7214 40.24C31.5355 40.2469 30.5707 39.6462 30.5654 38.8967C30.5614 38.1489 31.5193 37.5371 32.7052 37.5313C33.8899 37.5232 34.8547 38.1251 34.8599 38.8718Z" fill="#F4B882"/>
<path d="M32.7119 42.7517H27.3965C27.3965 42.7517 27.867 46.3748 32.7119 46.3748C37.5586 46.3748 38.0291 42.7517 38.0291 42.7517H32.7119Z" fill="white"/>
<path d="M44.5208 34.7543C44.5208 35.8505 43.8703 36.7476 43.0757 36.7476C42.2804 36.7476 41.6299 35.8505 41.6299 34.7543C41.6299 33.6581 42.2804 32.761 43.0757 32.761C43.8703 32.7616 44.5208 33.6581 44.5208 34.7543Z" fill="#352215"/>
<path d="M23.5736 34.7543C23.5736 35.8505 22.9231 36.7476 22.1278 36.7476C21.3332 36.7476 20.6826 35.8505 20.6826 34.7543C20.6826 33.6581 21.3332 32.761 22.1278 32.761C22.9231 32.7616 23.5736 33.6581 23.5736 34.7543Z" fill="#352215"/>
<path d="M37.3517 53.0024C36.5148 54.7647 34.4137 58.5591 32.3542 58.5001C30.4273 58.4455 28.5378 54.6519 27.7552 53.0024C27.7552 53.0024 12.5066 52.551 9 64H32.4459H32.5535H56C52.4934 52.551 37.3517 53.0024 37.3517 53.0024Z" fill="#AC69B9"/>
<path d="M40.8276 30.1061C42.2016 29.3809 43.9269 29.4139 45.1568 30.3978C45.5024 30.6727 45.9937 30.1871 45.6459 29.9082C44.1602 28.7211 42.1542 28.625 40.4798 29.5094C40.0856 29.7172 40.4346 30.3127 40.8276 30.1061Z" fill="#6D4D42"/>
<path d="M24.3644 30.1061C22.9899 29.3809 21.2651 29.4139 20.0352 30.3978C19.6908 30.6727 19.1995 30.1871 19.5461 29.9082C21.0319 28.7211 23.0379 28.625 24.7129 29.5094C25.1058 29.7172 24.7568 30.3127 24.3644 30.1061Z" fill="#6D4D42"/>
<path d="M13.966 30.8754C13.966 30.8754 22.3964 23.7102 24.8851 18.8832C24.8851 18.8832 34.2595 23.7767 52.0035 30.8754C52.0035 30.8754 53.6611 29.1367 54.9581 30.4789C54.9581 30.4789 56.7257 4.17603 33.1043 5.04014C33.1448 5.04245 9.57137 2.87495 11.1404 30.072C11.1404 30.072 12.8958 30.0489 13.966 30.8754Z" fill="#454545"/>
</g>
<defs>
<clipPath id="clip0_3069_1907">
<rect width="64" height="64" rx="32" fill="white"/>
</clipPath>
</defs>
</svg>
