<svg width="64" height="64" viewBox="0 0 64 64" fill="none" xmlns="http://www.w3.org/2000/svg">
<g clip-path="url(#clip0_3069_2230)">
<circle cx="32" cy="32" r="32" fill="#FF7C21"/>
<path d="M24.9176 44.889C24.3299 44.889 23.7701 45.0036 23.2548 45.2056C22.4619 44.1299 21.2517 43.3836 19.861 43.2063C20.1653 42.6936 20.3432 42.0974 20.3432 41.4577C20.3432 39.5629 18.8073 38.027 16.9125 38.027C16.4737 38.027 16.0553 38.1122 15.6701 38.2622C15.728 38.0179 15.7618 37.7645 15.7618 37.5026C15.7618 35.6806 14.2843 34.2031 12.4623 34.2031C10.6403 34.2031 9.16284 35.6806 9.16284 37.5026C9.16284 38.3683 9.49928 39.1542 10.0446 39.7429C8.82803 40.3981 8.00195 41.6827 8.00195 43.1608C8.00195 44.9233 9.17785 46.4088 10.7877 46.8813C10.2745 47.6243 9.97231 48.5233 9.97231 49.4945C9.97231 52.0375 12.0343 54.0995 14.5778 54.0995C15.7537 54.0995 16.8235 53.6548 17.6378 52.9295C18.136 53.095 18.6669 53.1882 19.2208 53.1882C20.0775 53.1882 20.8837 52.9723 21.5887 52.5941C22.4233 53.4807 23.604 54.0379 24.9181 54.0379C27.4446 54.0379 29.4926 51.9904 29.4926 49.464C29.4926 46.9375 27.4435 44.889 24.9176 44.889Z" fill="#0B0B0B"/>
<path d="M32.8145 49.4635C32.8145 51.9899 34.8625 54.0374 37.3889 54.0374C38.703 54.0374 39.8837 53.4802 40.7184 52.5936C41.4233 52.9718 42.2296 53.1877 43.0862 53.1877C43.6401 53.1877 44.171 53.0945 44.6692 52.929C45.4835 53.6543 46.5533 54.099 47.7292 54.099C50.2728 54.099 52.3347 52.037 52.3347 49.494C52.3347 48.5228 52.0331 47.6238 51.5194 46.8808C53.1292 46.4078 54.3051 44.9228 54.3051 43.1603C54.3051 41.6823 53.4785 40.3976 52.2624 39.7424C52.8078 39.1537 53.1442 38.3683 53.1442 37.5021C53.1442 35.6801 51.6667 34.2026 49.8447 34.2026C48.0228 34.2026 46.5453 35.6801 46.5453 37.5021C46.5453 37.7641 46.579 38.0174 46.6369 38.2617C46.2512 38.1117 45.8333 38.0266 45.3946 38.0266C43.4998 38.0266 41.9639 39.5624 41.9639 41.4572C41.9639 42.0964 42.1417 42.6931 42.446 43.2058C41.0553 43.3831 39.8457 44.1299 39.0523 45.2051C38.5364 45.0031 37.9766 44.8885 37.3894 44.8885C34.8625 44.889 32.8145 46.9371 32.8145 49.4635Z" fill="#0B0B0B"/>
<path d="M35.872 46.7063H27.0762V55.6597H35.872V46.7063Z" fill="#BF8158"/>
<path d="M17.3194 32.961C17.3312 35.0138 15.6769 36.6874 13.6241 36.6992C11.5702 36.7126 9.89662 35.0583 9.88483 33.0049C9.87251 30.9521 11.5273 29.2769 13.5802 29.2662C15.633 29.2539 17.3071 30.9092 17.3194 32.961Z" fill="#BF8158"/>
<path d="M15.7608 32.9695C15.7688 34.1631 14.8067 35.1354 13.6147 35.1429C12.4228 35.1493 11.4499 34.1888 11.4424 32.9958C11.4349 31.8022 12.3965 30.8309 13.5885 30.8245C14.7826 30.8159 15.7533 31.7776 15.7608 32.9695Z" fill="#AA6944"/>
<path d="M53.0641 32.751C53.0764 34.8039 51.4216 36.478 49.3682 36.4898C47.3154 36.5032 45.6408 34.8478 45.629 32.795C45.6167 30.7416 47.2715 29.068 49.3243 29.0562C51.3772 29.0434 53.0502 30.6982 53.0641 32.751Z" fill="#BF8158"/>
<path d="M51.5044 32.76C51.513 33.953 50.5509 34.9248 49.3589 34.9323C48.1669 34.9387 47.1941 33.9782 47.1866 32.7841C47.1791 31.5921 48.1396 30.6198 49.3348 30.6123C50.5262 30.6064 51.4974 31.567 51.5044 32.76Z" fill="#AA6944"/>
<path d="M49.2609 34.0758C49.3091 42.0236 42.8441 48.5641 34.8963 48.6107L28.0536 48.6493C20.1058 48.6975 13.5653 42.2331 13.5171 34.2863L13.4817 28.0672C13.4346 20.1183 19.8985 13.5778 27.8457 13.5312L34.69 13.4905C42.6378 13.4439 49.18 19.9083 49.226 27.8556L49.2609 34.0758Z" fill="#BF8158"/>
<path d="M33.4662 38.0137C33.47 38.7059 32.5834 39.2727 31.4868 39.2802C30.3891 39.2866 29.4955 38.7305 29.4912 38.0368C29.4869 37.3452 30.3741 36.7789 31.4718 36.773C32.5678 36.7655 33.4609 37.3227 33.4662 38.0137Z" fill="#AA6944"/>
<path d="M42.4083 34.2033C42.4083 35.2185 41.8062 36.0483 41.0706 36.0483C40.334 36.0483 39.7324 35.218 39.7324 34.2033C39.7324 33.1882 40.334 32.3589 41.0706 32.3589C41.8062 32.3584 42.4083 33.1882 42.4083 34.2033Z" fill="#352215"/>
<path d="M23.0192 34.2033C23.0192 35.2185 22.417 36.0483 21.681 36.0483C20.9454 36.0483 20.3428 35.218 20.3428 34.2033C20.3428 33.1882 20.9454 32.3589 21.681 32.3589C22.417 32.3584 23.0192 33.1882 23.0192 34.2033Z" fill="#352215"/>
<path d="M26.9345 42.0542C28.2743 45.157 34.9006 45.1913 36.0995 41.9561C36.2843 41.459 35.4915 41.2479 35.3093 41.7386C34.345 44.3384 28.6799 44.0438 27.6417 41.6401C27.4322 41.1568 26.7261 41.5742 26.9345 42.0542Z" fill="#A9703B"/>
<path d="M35.9383 51.0028C35.1731 53.0863 33.2509 57.5694 31.3666 57.4997C29.6037 57.4352 27.875 52.9521 27.159 51.0028C27.159 51.0028 13.2082 50.4694 10 64H31.4506H31.5489H53C49.7913 50.4694 35.9383 51.0028 35.9383 51.0028Z" fill="#BF8158"/>
<path d="M38.9892 29.9005C40.261 29.2287 41.8574 29.2593 42.9958 30.1705C43.3156 30.425 43.7705 29.975 43.4485 29.7173C42.0733 28.6186 40.2165 28.5296 38.6667 29.3482C38.3024 29.5405 38.6255 30.0923 38.9892 29.9005Z" fill="#350304"/>
<path d="M23.751 29.9005C22.4787 29.2287 20.8823 29.2593 19.7439 30.1705C19.4252 30.425 18.9704 29.975 19.2912 29.7173C20.6664 28.6186 22.5232 28.5296 24.0736 29.3482C24.4373 29.5405 24.1143 30.0923 23.751 29.9005Z" fill="#350304"/>
<path d="M44.9028 53.2271C44.9028 53.2271 42.584 51.4348 39.2298 51C39.2298 51 38.0296 55.615 31.0008 55.6991C23.972 55.615 22.7718 51 22.7718 51C19.4176 51.4357 17.0988 53.2271 17.0988 53.2271C17.6645 60.3433 14 64 14 64H30.8089H31.1911H48C48.0016 64 44.3371 60.3433 44.9028 53.2271Z" fill="#1A9BDC"/>
<path d="M52.8488 22.836C54.4098 22.2414 55.5 20.9058 55.5 19.3501C55.5 17.2421 53.5007 15.5332 51.0354 15.5332C50.7332 15.5332 50.4375 15.56 50.152 15.6092C50.2082 15.3296 50.2441 15.043 50.2441 14.75C50.2441 11.9782 47.617 9.73247 44.3759 9.73247C44.084 9.73247 43.799 9.75659 43.5177 9.79195C42.8834 7.05982 40.0672 5 36.6852 5C34.7363 5 32.9771 5.68518 31.7122 6.78714C30.6472 5.91821 29.2072 5.38143 27.6178 5.38143C25.1048 5.38143 22.9614 6.71856 22.094 8.60373C21.6574 8.49605 21.1967 8.43552 20.7194 8.43552C18.0826 8.43552 15.9328 10.1953 15.7748 12.4153C14.203 12.8241 13.0094 13.9662 12.7287 15.3741C10.6743 15.8466 9.16034 17.4451 9.16034 19.3507C9.16034 20.0246 9.35321 20.6578 9.68803 21.2198C8.67393 21.7758 8 22.746 8 23.8522C8 24.9585 8.67393 25.9292 9.68803 26.4853C9.00285 27.1094 8.58016 27.9467 8.58016 28.8703C8.58016 30.7972 10.4075 32.3594 12.6612 32.3594C14.915 32.3594 16.7423 30.7972 16.7423 28.8703C16.7423 28.7422 16.7326 28.6158 16.7171 28.4915C16.7814 28.4947 16.8451 28.5001 16.9105 28.5001C18.8053 28.5001 20.3412 27.1871 20.3412 25.566C20.3412 25.4856 20.3342 25.4064 20.3273 25.3276C21.944 25.0635 23.1982 23.9347 23.4103 22.5253C23.774 22.5944 24.1507 22.6335 24.538 22.6335C26.3765 22.6335 27.9874 21.8117 28.9056 20.5769C29.6192 21.0644 30.4945 21.3858 31.454 21.4673C32.3229 23.271 34.3972 24.5417 36.8208 24.5417C37.1251 24.5417 37.4219 24.5155 37.7138 24.4769C38.5088 26.3819 40.6313 27.7474 43.1331 27.7474C43.2017 27.7474 43.2681 27.7405 43.3361 27.7383C44.0111 29.8222 46.2402 31.3538 48.892 31.3538C52.0789 31.3538 54.6627 29.1451 54.6627 26.421C54.6632 25.0072 53.9636 23.7355 52.8488 22.836Z" fill="#0B0B0B"/>
</g>
<defs>
<clipPath id="clip0_3069_2230">
<rect width="64" height="64" rx="32" fill="white"/>
</clipPath>
</defs>
</svg>
