<svg width="64" height="64" viewBox="0 0 64 64" fill="none" xmlns="http://www.w3.org/2000/svg">
<g clip-path="url(#clip0_3069_1969)">
<circle cx="32" cy="32" r="32" fill="#80341D"/>
<path d="M50.9693 37.4175C49.8113 35.5488 48.8808 33.8062 48.1282 32.2251C47.6774 32.7113 47.2219 32.9323 46.8453 32.6895C46.4469 34.4733 45.916 36.1517 45.2907 37.6403C44.5282 39.4547 34.1946 41.8391 26.8731 43.7225C26.8872 43.5946 26.9108 43.4614 26.9143 43.3395C25.0963 41.6104 18.3829 40.6628 17.1135 37.6403C16.48 36.1328 15.9426 34.4285 15.5424 32.6188C15.1818 32.9358 14.7362 32.7785 14.2878 32.3436C13.6042 33.9141 12.8263 35.6213 11.9535 37.4175C6.47708 48.6845 7.29151 56.2111 11.2098 61.0217C12.3714 60.5278 46.6491 58.9261 52.0365 61.1472C56.325 55.7603 57.1818 47.4393 50.9693 37.4175Z" fill="#966544"/>
<path d="M36.587 48.6084H26.9111V58.4569H36.587V48.6084Z" fill="#FDCC9B"/>
<path d="M16.1789 33.488C16.1918 35.7463 14.3721 37.5873 12.1144 37.6008C9.855 37.6161 8.01401 35.7952 8.00105 33.5369C7.98808 31.2781 9.80785 29.4359 12.0661 29.4242C14.3237 29.41 16.1647 31.2304 16.1789 33.488Z" fill="#FDCC9B"/>
<path d="M14.4643 33.4974C14.4732 34.8097 13.4148 35.8793 12.1036 35.8882C10.7923 35.8947 9.72217 34.838 9.71392 33.5256C9.70566 32.2127 10.7635 31.1442 12.0747 31.1378C13.3882 31.1283 14.4567 32.1861 14.4643 33.4974Z" fill="#F4B882"/>
<path d="M55.4994 33.2563C55.5135 35.5146 53.6926 37.3568 51.4338 37.3691C49.1755 37.3839 47.3334 35.5635 47.3204 33.3053C47.3068 31.0464 49.1272 29.206 51.3854 29.1925C53.6443 29.1777 55.4847 30.9987 55.4994 33.2563Z" fill="#FDCC9B"/>
<path d="M53.7841 33.267C53.7935 34.5794 52.7351 35.6484 51.4239 35.6567C50.1127 35.6631 49.0425 34.6065 49.0342 33.2941C49.026 31.9829 50.0826 30.9133 51.3974 30.9051C52.7086 30.898 53.7764 31.9546 53.7841 33.267Z" fill="#F4B882"/>
<path d="M51.3161 34.7144C51.3691 43.4574 44.2573 50.6522 35.5143 50.7035L27.9871 50.7459C19.2441 50.799 12.0493 43.6872 11.9962 34.9454L11.9573 28.1041C11.9055 19.3605 19.0167 12.1657 27.7585 12.1144L35.2875 12.0696C44.0305 12.0189 51.2271 19.1289 51.2778 27.8725L51.3161 34.7144Z" fill="#FDCC9B"/>
<path d="M33.9411 39.0463C33.9452 39.8077 32.9699 40.4318 31.7636 40.4394C30.5561 40.4465 29.5731 39.8348 29.5684 39.0717C29.5637 38.3103 30.5396 37.6874 31.747 37.6815C32.9528 37.6732 33.9352 38.2861 33.9411 39.0463Z" fill="#F4B882"/>
<path d="M43.7776 34.854C43.7776 35.9702 43.1152 36.8836 42.3061 36.8836C41.4958 36.8836 40.834 35.9702 40.834 34.854C40.834 33.7379 41.4958 32.8245 42.3061 32.8245C43.1152 32.8251 43.7776 33.7379 43.7776 34.854Z" fill="#352215"/>
<path d="M22.4491 34.854C22.4491 35.9702 21.7867 36.8836 20.977 36.8836C20.1679 36.8836 19.5049 35.9702 19.5049 34.854C19.5049 33.7379 20.1679 32.8245 20.977 32.8245C21.7867 32.8251 22.4491 33.7379 22.4491 34.854Z" fill="#352215"/>
<path d="M26.7557 43.4909C28.2296 46.9042 35.5187 46.9419 36.8376 43.3837C37.0409 42.8368 36.1687 42.604 35.9684 43.1438C34.9076 46.0037 28.6757 45.6796 27.5336 43.036C27.3032 42.5032 26.5265 42.9629 26.7557 43.4909Z" fill="#F1A58D"/>
<path d="M36.5874 53.5327C35.7441 54.9223 33.6255 57.9142 31.5488 57.8676C29.6058 57.8246 27.7006 54.8333 26.9115 53.5327C26.9115 53.5327 11.5359 53.1767 8 62.2043H31.6413H31.7497H55.3916C51.8558 53.1767 36.5874 53.5327 36.5874 53.5327Z" fill="#FDCC9B"/>
<path d="M40.0172 30.1213C41.4163 29.3829 43.1724 29.4165 44.4247 30.4184C44.7765 30.6983 45.2768 30.2039 44.9226 29.9198C43.4099 28.7111 41.3674 28.6133 39.6625 29.5138C39.2612 29.7253 39.6171 30.3317 40.0172 30.1213Z" fill="#966544"/>
<path d="M23.2541 30.1213C21.8545 29.3829 20.0984 29.4165 18.8461 30.4184C18.4954 30.6983 17.9951 30.2039 18.3481 29.9198C19.8609 28.7111 21.9034 28.6133 23.6089 29.5138C24.0096 29.7253 23.6543 30.3317 23.2541 30.1213Z" fill="#966544"/>
<path d="M47.5384 55.3984C47.5384 55.3984 44.9468 53.4683 41.198 53C41.198 53 39.8566 57.97 32.0009 58.0605C24.1451 57.97 22.8038 53 22.8038 53C19.0549 53.4693 16.4634 55.3984 16.4634 55.3984C17.0962 63.063 13 67 13 67H31.7864H32.2136H51C51.0012 67 46.9056 63.063 47.5384 55.3984Z" fill="#EB82A0"/>
<path d="M12.9563 32.3588C12.9563 32.3588 13.8951 26.9254 14.8833 26.0444C14.8833 26.0444 21.4394 24.5063 25.8156 25.1351C25.8156 25.1351 26.7184 21.0223 26.5735 18.371C26.5735 18.371 28.7898 21.4195 28.9395 25.1156C28.9395 25.1156 37.603 25.3826 41.1323 25.0049C41.1323 25.0049 41.8979 20.2597 40.7475 18.7723C40.7475 18.7723 43.684 22.6022 43.6911 25.1156C43.6911 25.1156 47.7756 25.7922 48.6219 26.7981C49.4699 27.8047 50.3674 32.8244 50.3674 32.8244C50.3674 32.8244 51.2302 28.9143 53.466 29.7977C53.466 29.7977 55.1467 24.8611 50.4876 16.5595C45.8297 8.25787 39.6119 5.78514 32.3157 7.52596C32.3157 7.52596 26.2711 5.84053 20.7658 8.85897C15.2593 11.878 13.3299 15.0927 11.6362 18.9326C9.94198 22.7731 9.20594 30.0912 10.1583 29.8619C11.9798 29.4235 12.9563 32.3588 12.9563 32.3588Z" fill="#966544"/>
</g>
<defs>
<clipPath id="clip0_3069_1969">
<rect width="64" height="64" rx="32" fill="white"/>
</clipPath>
</defs>
</svg>
