<svg width="64" height="64" viewBox="0 0 64 64" fill="none" xmlns="http://www.w3.org/2000/svg">
<g clip-path="url(#clip0_3069_2100)">
<circle cx="32" cy="32" r="32" fill="#02BCC4"/>
<path d="M36.9899 43.5312H27.334V58.7649H36.9899V43.5312Z" fill="#FDCC9B"/>
<path d="M16.6244 28.4431C16.6379 30.6971 14.8214 32.5336 12.5692 32.5472C10.3145 32.5619 8.47687 30.7454 8.46394 28.4919C8.451 26.2379 10.2669 24.3996 12.5209 24.3873C14.7738 24.3738 16.6103 26.1903 16.6244 28.4431Z" fill="#FDCC9B"/>
<path d="M14.9132 28.4523C14.9215 29.7619 13.8659 30.8298 12.5569 30.838C11.2485 30.8445 10.1811 29.7901 10.1729 28.4805C10.1647 27.1703 11.2202 26.1042 12.5287 26.0977C13.8389 26.0883 14.9056 27.1439 14.9132 28.4523Z" fill="#F4B882"/>
<path d="M55.8615 28.2118C55.875 30.4653 54.0586 32.3035 51.8051 32.3159C49.5511 32.3306 47.7128 30.5141 47.6993 28.2606C47.6864 26.0066 49.5023 24.1701 51.7563 24.1566C54.0103 24.1425 55.8468 25.959 55.8615 28.2118Z" fill="#FDCC9B"/>
<path d="M54.1499 28.2224C54.1588 29.532 53.1032 30.5982 51.7942 30.607C50.4858 30.6135 49.4184 29.5591 49.4102 28.2495C49.402 26.9411 50.4563 25.8732 51.7677 25.8655C53.0761 25.8585 54.1423 26.9128 54.1499 28.2224Z" fill="#F4B882"/>
<path d="M51.6866 29.6668C51.7389 38.3912 44.6428 45.5708 35.9184 45.6219L28.4072 45.6643C19.6827 45.7172 12.5026 38.6205 12.4502 29.8973L12.4114 23.0705C12.3591 14.3455 19.4552 7.16595 28.179 7.11479L35.6914 7.0701C44.4158 7.01894 51.5972 14.1144 51.6483 22.8394L51.6866 29.6668Z" fill="#FDCC9B"/>
<path d="M34.3487 33.9895C34.3523 34.7487 33.3796 35.3714 32.1759 35.3791C30.9704 35.3861 29.9901 34.7763 29.9854 34.0148C29.9807 33.2556 30.9545 32.6334 32.1594 32.6275C33.3626 32.6193 34.3434 33.2303 34.3487 33.9895Z" fill="#F4B882"/>
<path d="M32.1653 36.7556H25.4414C25.4414 36.7556 26.0365 41.9581 32.1653 41.9581C38.2963 41.9581 38.8909 36.7556 38.8909 36.7556H32.1653Z" fill="white"/>
<path d="M41.5947 29.806C41.6165 29.1439 41.8981 28.1983 42.6955 28.1483C43.4877 28.0989 43.7776 29.2215 43.7964 29.806C43.8117 30.2788 44.5467 30.2806 44.5314 29.806C44.4956 28.7023 43.9275 27.4903 42.6955 27.4132C41.4677 27.3368 40.892 28.8234 40.8596 29.806C40.8438 30.2806 41.5788 30.2788 41.5947 29.806Z" fill="#352215"/>
<path d="M20.3105 29.806C20.3323 29.1439 20.6145 28.1983 21.4119 28.1483C22.204 28.0989 22.494 29.2221 22.5128 29.806C22.5281 30.2788 23.2631 30.2806 23.2478 29.806C23.212 28.7028 22.6439 27.4903 21.4119 27.4132C20.1841 27.3368 19.6078 28.8234 19.5754 29.806C19.5601 30.2806 20.2952 30.2788 20.3105 29.806Z" fill="#352215"/>
<path d="M39.9744 24.8464C41.6156 23.4392 43.7873 23.6532 45.4009 24.9811C45.7949 25.3045 46.2807 24.6835 45.889 24.3612C44.019 22.8235 41.4122 22.5782 39.4974 24.2189C39.114 24.5471 39.5868 25.1792 39.9744 24.8464Z" fill="#895837"/>
<path d="M24.1315 24.8464C22.4903 23.4392 20.3191 23.6532 18.7049 24.9811C18.3109 25.3045 17.8252 24.6835 18.2169 24.3612C20.0869 22.8235 22.6931 22.5782 24.6078 24.2189C24.9924 24.5471 24.5185 25.1792 24.1315 24.8464Z" fill="#895837"/>
<path d="M37.3508 51.0031C36.515 53.246 32.5532 59 32.5532 59C32.5532 59 28.5375 53.1024 27.7556 51.0031C27.7556 51.0031 12.5066 50.4285 9 65H32.4456H32.5532H56C52.4922 50.4295 37.3508 51.0031 37.3508 51.0031Z" fill="#C83432"/>
<path d="M12.5429 24.3883C12.5429 24.3883 31.3837 19.7568 38.8908 13.5822C38.8908 13.5822 46.7696 21.9608 51.6558 24.3872C51.6558 24.3872 55.14 3.7146 32.3169 3.7146C9.59675 3.7146 12.5429 24.3883 12.5429 24.3883Z" fill="#895837"/>
</g>
<defs>
<clipPath id="clip0_3069_2100">
<rect width="64" height="64" rx="32" fill="white"/>
</clipPath>
</defs>
</svg>
