<svg width="64" height="64" viewBox="0 0 64 64" fill="none" xmlns="http://www.w3.org/2000/svg">
<g clip-path="url(#clip0_3069_1938)">
<circle cx="32" cy="32" r="32" fill="#01C1C2"/>
<path d="M36.5876 46.8745H26.9111V56.723H36.5876V46.8745Z" fill="#FDCC9B"/>
<path d="M16.1785 31.7541C16.1926 34.0124 14.3717 35.8534 12.1146 35.8669C9.85521 35.8822 8.01362 34.0613 8.00007 31.8031C7.9871 29.5442 9.80688 27.7021 12.0657 27.6903C14.3245 27.6761 16.1649 29.4965 16.1785 31.7541Z" fill="#FDCC9B"/>
<path d="M14.4643 31.7635C14.4726 33.0759 13.4148 34.1455 12.103 34.1543C10.7918 34.1608 9.72217 33.1041 9.71392 31.7918C9.70566 30.4788 10.7635 29.4104 12.0747 29.4039C13.3877 29.3944 14.4567 30.4523 14.4643 31.7635Z" fill="#F4B882"/>
<path d="M55.4994 31.5225C55.513 33.7807 53.6926 35.6229 51.4343 35.6352C49.1755 35.65 47.3334 33.8296 47.3204 31.5714C47.3068 29.3125 49.1272 27.4721 51.386 27.4586C53.6443 27.4439 55.4847 29.2648 55.4994 31.5225Z" fill="#FDCC9B"/>
<path d="M53.7841 31.5331C53.7929 32.8455 52.7351 33.9145 51.4233 33.9228C50.1121 33.9293 49.0425 32.8726 49.0342 31.5602C49.026 30.249 50.0826 29.1794 51.3968 29.1712C52.708 29.1641 53.7764 30.2207 53.7841 31.5331Z" fill="#F4B882"/>
<path d="M51.3161 32.9805C51.3685 41.7235 44.2573 48.9184 35.5144 48.9696L27.9871 49.0121C19.2441 49.0651 12.0487 41.9533 11.9962 33.2115L11.9573 26.3702C11.9049 17.6266 19.0166 10.4318 27.7585 10.3805L35.2869 10.3357C44.0299 10.285 51.2265 17.395 51.2778 26.1386L51.3161 32.9805Z" fill="#FDCC9B"/>
<path d="M33.942 37.3124C33.9456 38.0738 32.9708 38.6979 31.7645 38.7056C30.5564 38.7126 29.5741 38.1009 29.5694 37.3378C29.5646 36.5764 30.5405 35.9535 31.748 35.9476C32.9532 35.9393 33.9361 36.5522 33.942 37.3124Z" fill="#F4B882"/>
<path d="M31.7538 40.0845H25.0156C25.0156 40.0845 25.612 45.2981 31.7538 45.2981C37.8979 45.2981 38.4937 40.0845 38.4937 40.0845H31.7538Z" fill="white"/>
<path d="M41.2017 33.1205C41.2235 32.4569 41.5058 31.5093 42.3049 31.4592C43.0987 31.4097 43.3892 32.5347 43.4081 33.1205C43.4234 33.5943 44.16 33.596 44.1447 33.1205C44.1088 32.0143 43.5395 30.7998 42.3049 30.7226C41.0744 30.646 40.4975 32.1357 40.4651 33.1205C40.4498 33.596 41.1864 33.5943 41.2017 33.1205Z" fill="#352215"/>
<path d="M19.8726 33.1205C19.8944 32.4563 20.1773 31.5093 20.9764 31.4592C21.7702 31.4097 22.0607 32.5353 22.0796 33.1205C22.0949 33.5943 22.8315 33.596 22.8162 33.1205C22.7803 32.0143 22.211 30.7998 20.9764 30.7226C19.7459 30.646 19.1684 32.1357 19.136 33.1205C19.1207 33.596 19.8573 33.5943 19.8726 33.1205Z" fill="#352215"/>
<path d="M39.5792 28.1499C41.2239 26.7397 43.4003 26.9542 45.0173 28.2849C45.4122 28.609 45.8989 27.9867 45.5065 27.6637C43.6325 26.1227 41.0201 25.877 39.1013 27.5211C38.717 27.85 39.1908 28.4835 39.5792 28.1499Z" fill="#964711"/>
<path d="M23.7021 28.1499C22.0573 26.7397 19.8816 26.9542 18.2639 28.2849C17.8691 28.609 17.3823 27.9867 17.7748 27.6637C19.6488 26.1227 22.2606 25.877 24.1794 27.5211C24.5648 27.85 24.0898 28.4835 23.7021 28.1499Z" fill="#964711"/>
<path d="M36.3517 52.0026C34.7328 55.7245 28.3741 55.7245 26.7552 52.0026C26.7552 52.0026 11.5072 51.5102 8 64H31.4465H31.5535H55C51.4934 51.5102 36.3517 52.0026 36.3517 52.0026Z" fill="#398E3D"/>
<path d="M33.4382 7.08693C33.8967 5.67907 34.3557 4.27122 34.8136 2.86277C35.0936 2.00297 33.7452 1.62875 33.4671 2.48325C32.9732 4.00131 32.4794 5.51819 31.9849 7.03625C31.8117 7.03448 31.6361 7.03389 31.4587 7.03507C30.4292 6.1517 29.3996 5.2695 28.3701 4.38613C27.6901 3.80389 26.6912 4.7845 27.3783 5.37322C28.0501 5.94839 28.7202 6.52355 29.392 7.09872C8.84632 8.33568 10.3449 26.296 10.8753 28.7676C10.8753 28.7676 18.2605 28.1936 22.3038 22.9252C22.3038 22.9252 20.2341 26.8647 18.2611 28.1936C18.2611 28.1936 31.4563 26.3638 35.496 18.3604C35.496 18.3604 41.9048 26.9879 49.1008 27.8247L51.4787 28.2897C51.4787 28.2897 53.655 8.25435 33.4382 7.08693Z" fill="#A86027"/>
</g>
<defs>
<clipPath id="clip0_3069_1938">
<rect width="64" height="64" rx="32" fill="white"/>
</clipPath>
</defs>
</svg>
