<svg width="64" height="64" viewBox="0 0 64 64" fill="none" xmlns="http://www.w3.org/2000/svg">
<g clip-path="url(#clip0_3069_2037)">
<circle cx="32" cy="32" r="32" fill="#7EE5E9"/>
<path d="M37.0334 47.6455H27.3574V57.4947H37.0334V47.6455Z" fill="#BF8158"/>
<path d="M16.6243 32.5248C16.6379 34.783 14.8175 36.6241 12.5604 36.637C10.3004 36.6524 8.45933 34.832 8.44636 32.5731C8.43281 30.3149 10.2532 28.4721 12.5121 28.4603C14.7703 28.4467 16.6107 30.2677 16.6243 32.5248Z" fill="#BF8158"/>
<path d="M14.9097 32.5342C14.9185 33.8467 13.8601 34.9163 12.5489 34.9251C11.2377 34.9316 10.1675 33.8749 10.1592 32.5625C10.1516 31.2501 11.2088 30.1811 12.5206 30.1746C13.8336 30.1652 14.9015 31.223 14.9097 32.5342Z" fill="#AA6944"/>
<path d="M55.9452 32.2933C55.9594 34.5515 54.1384 36.3937 51.8801 36.4061C49.6219 36.4208 47.7796 34.6004 47.7667 32.3422C47.7531 30.0839 49.5735 28.2429 51.8318 28.2293C54.0895 28.2152 55.9305 30.0356 55.9452 32.2933Z" fill="#BF8158"/>
<path d="M54.23 32.3038C54.2383 33.6162 53.1805 34.6846 51.8692 34.6928C50.558 34.6999 49.4878 33.6433 49.4795 32.3303C49.4713 31.0191 50.5279 29.9494 51.8427 29.9412C53.1539 29.9347 54.2224 30.9913 54.23 32.3038Z" fill="#AA6944"/>
<path d="M51.7613 33.7517C51.8143 42.4948 44.703 49.6897 35.9594 49.741L28.432 49.7834C19.6889 49.8365 12.494 42.7252 12.4415 33.9833L12.4026 27.1419C12.3502 18.3982 19.462 11.2033 28.2034 11.152L35.7325 11.1072C44.4756 11.0565 51.6723 18.1666 51.723 26.9103L51.7613 33.7517Z" fill="#BF8158"/>
<path d="M34.3874 38.0826C34.3915 38.8446 33.4162 39.4687 32.2099 39.4764C31.0024 39.4834 30.0194 38.8711 30.0147 38.1086C30.01 37.3472 30.9859 36.7242 32.1934 36.7184C33.3991 36.7095 34.3815 37.323 34.3874 38.0826Z" fill="#AA6944"/>
<path d="M44.2229 33.8908C44.2229 35.0076 43.5605 35.921 42.7514 35.921C41.9411 35.921 41.2793 35.007 41.2793 33.8908C41.2793 32.7753 41.9411 31.8618 42.7514 31.8618C43.5605 31.8618 44.2229 32.7753 44.2229 33.8908Z" fill="#352215"/>
<path d="M22.8948 33.8908C22.8948 35.0076 22.2324 35.921 21.4227 35.921C20.6136 35.921 19.9512 35.007 19.9512 33.8908C19.9512 32.7753 20.6136 31.8618 21.4227 31.8618C22.2324 31.8618 22.8948 32.7753 22.8948 33.8908Z" fill="#352215"/>
<path d="M40.0247 28.9204C41.6695 27.5102 43.8452 27.7247 45.4623 29.0554C45.8571 29.3795 46.3439 28.7572 45.9514 28.4343C44.0774 26.8932 41.4656 26.6475 39.5467 28.2916C39.1619 28.6211 39.6369 29.254 40.0247 28.9204Z" fill="#350304"/>
<path d="M24.1484 28.9204C22.5036 27.5102 20.3279 27.7247 18.7102 29.0554C18.3154 29.3795 17.8286 28.7572 18.2211 28.4343C20.0951 26.8932 22.7069 26.6475 24.6258 28.2916C25.0106 28.6211 24.5362 29.254 24.1484 28.9204Z" fill="#350304"/>
<path d="M36.9547 53.0024C35.3014 56.4139 28.8073 56.4139 27.1545 53.0024C27.1545 53.0024 11.5813 52.551 8 64H31.9451H32.0549H56C52.4187 52.551 36.9547 53.0024 36.9547 53.0024Z" fill="#00ACC2"/>
<path d="M32.3508 41.8042H26.9385C26.9385 41.8042 27.4176 45.4933 32.3508 45.4933C37.2857 45.4933 37.7642 41.8042 37.7642 41.8042H32.3508Z" fill="white"/>
<path d="M51.6333 13.5793C50.5343 3.68237 31.9396 3.68237 31.9396 3.68237C31.9396 3.68237 15.2124 3.68237 12.2464 13.5793C11.5033 16.0574 8.62446 24.0621 11.2275 28.2957C13.5517 34.6928 12.8793 32.5035 13.3119 34.925C13.3119 34.925 15.0474 32.3956 14.7781 30.1309C14.4746 27.5809 15.6414 25.4057 15.302 22.6984C14.9631 19.9917 15.8677 18.1247 20.6212 17.3633C25.374 16.6019 27.9776 17.8713 31.939 17.8713C35.9004 17.8713 38.504 16.6025 43.2574 17.3633C48.0102 18.1247 48.916 19.9917 48.576 22.6984C48.2365 25.4057 49.4028 27.5809 49.0993 30.1309C48.8305 32.3956 51.0275 34.925 51.0275 34.925C50.8802 33.4558 52.6505 28.2957 52.6505 28.2957C55.2553 24.0621 51.9144 16.1099 51.6333 13.5793Z" fill="#350304"/>
</g>
<defs>
<clipPath id="clip0_3069_2037">
<rect width="64" height="64" rx="32" fill="white"/>
</clipPath>
</defs>
</svg>
