<svg width="64" height="64" viewBox="0 0 64 64" fill="none" xmlns="http://www.w3.org/2000/svg">
<g clip-path="url(#clip0_3069_1876)">
<circle cx="32" cy="32" r="32" fill="#FE9F01"/>
<path d="M36.6858 47.5105H27.085V57.282H36.6858V47.5105Z" fill="#FDCC9B"/>
<path d="M16.4362 32.5083C16.4497 34.7488 14.6435 36.5754 12.4041 36.5889C10.1618 36.6041 8.3352 34.7974 8.32233 32.5568C8.30947 30.3156 10.115 28.4878 12.3562 28.4762C14.5968 28.4621 16.4228 30.2683 16.4362 32.5083Z" fill="#FDCC9B"/>
<path d="M14.7358 32.5177C14.7446 33.8199 13.6944 34.8811 12.3935 34.8899C11.0925 34.8963 10.0307 33.8479 10.0225 32.5458C10.0149 31.2431 11.0639 30.183 12.3654 30.1766C13.6681 30.1672 14.7276 31.2168 14.7358 32.5177Z" fill="#F4B882"/>
<path d="M55.4497 32.2783C55.4637 34.5189 53.657 36.3466 51.4164 36.3589C49.1753 36.3735 47.3475 34.5674 47.3341 32.3268C47.3212 30.0857 49.1267 28.2596 51.3685 28.2462C53.6085 28.2316 55.4345 30.0383 55.4497 32.2783Z" fill="#FDCC9B"/>
<path d="M53.7475 32.2891C53.7563 33.5912 52.7062 34.6519 51.4052 34.66C50.1042 34.6665 49.0424 33.6181 49.0342 32.316C49.026 31.015 50.0744 29.9538 51.3789 29.9456C52.6798 29.9386 53.7399 30.9869 53.7475 32.2891Z" fill="#F4B882"/>
<path d="M51.299 33.7249C51.351 42.3995 44.2949 49.5381 35.6208 49.589L28.1518 49.6311C19.4766 49.6837 12.338 42.6275 12.2859 33.9541L12.2474 27.1663C12.1953 18.491 19.2515 11.3524 27.925 11.3015L35.3945 11.2571C44.0692 11.2068 51.2095 18.2612 51.2598 26.9365L51.299 33.7249Z" fill="#FDCC9B"/>
<path d="M34.0592 38.0229C34.0633 38.7784 33.0956 39.3976 31.8987 39.4052C30.7007 39.4122 29.726 38.8053 29.7207 38.0481C29.7166 37.2927 30.6843 36.6746 31.8824 36.6688C33.0787 36.6606 34.0539 37.2687 34.0592 38.0229Z" fill="#F4B882"/>
<path d="M43.819 33.8636C43.819 34.971 43.1618 35.8773 42.359 35.8773C41.5556 35.8773 40.8984 34.971 40.8984 33.8636C40.8984 32.7561 41.5556 31.8499 42.359 31.8499C43.1618 31.8504 43.819 32.7561 43.819 33.8636Z" fill="#352215"/>
<path d="M22.6569 33.8636C22.6569 34.971 21.9997 35.8773 21.1963 35.8773C20.3935 35.8773 19.7363 34.971 19.7363 33.8636C19.7363 32.7561 20.3935 31.8499 21.1963 31.8499C21.9997 31.8504 22.6569 32.7561 22.6569 33.8636Z" fill="#352215"/>
<path d="M39.6534 28.9321C41.2853 27.5329 43.444 27.7457 45.049 29.066C45.4407 29.3876 45.9237 28.7701 45.5343 28.4497C43.6749 26.9207 41.0836 26.6769 39.1798 28.3082C38.7974 28.6345 39.2686 29.263 39.6534 28.9321Z" fill="#2D2C2B"/>
<path d="M23.9007 28.9321C22.2688 27.5329 20.11 27.7457 18.505 29.066C18.1133 29.3876 17.6303 28.7701 18.0197 28.4497C19.8791 26.9207 22.4705 26.6769 24.3743 28.3082C24.7561 28.6345 24.2854 29.263 23.9007 28.9321Z" fill="#2D2C2B"/>
<path d="M26.7769 41.8481C28.2392 45.2347 35.4714 45.2721 36.7799 41.7416C36.9817 41.199 36.1163 40.9681 35.9175 41.5037C34.8651 44.3412 28.6818 44.0196 27.5493 41.3967C27.3201 40.8681 26.5494 41.3242 26.7769 41.8481Z" fill="#F1A58D"/>
<path d="M36.3517 52.0026C34.7328 55.7245 28.3741 55.7245 26.7552 52.0026C26.7552 52.0026 11.5066 51.5102 8 64H31.4459H31.5535H55C51.4928 51.5102 36.3517 52.0026 36.3517 52.0026Z" fill="#00ACC2"/>
<path d="M12.3562 28.4756C12.3562 28.4756 19.0148 22.7028 21.1969 20.1687C21.1969 20.1687 33.4171 21.9223 40.0436 17.6346C40.0436 17.6346 47.0951 26.3941 51.2675 28.2511C51.2675 28.2511 55.4499 7.5 31.773 7.5C8.32174 7.50058 12.3562 28.4756 12.3562 28.4756Z" fill="#2D2C2B"/>
</g>
<defs>
<clipPath id="clip0_3069_1876">
<rect width="64" height="64" rx="32" fill="white"/>
</clipPath>
</defs>
</svg>
