<svg width="64" height="64" viewBox="0 0 64 64" fill="none" xmlns="http://www.w3.org/2000/svg">
<g clip-path="url(#clip0_3069_2197)">
<circle cx="32" cy="32" r="32" fill="#FE9A00"/>
<path d="M36.5876 50.0264H26.9111V59.8755H36.5876V50.0264Z" fill="#FDCC9B"/>
<path d="M16.1785 34.9058C16.1926 37.1641 14.3717 39.0051 12.1146 39.018C9.85521 39.0328 8.01362 37.213 8.00007 34.9542C7.9871 32.6959 9.80688 30.8532 12.0657 30.8414C14.3245 30.8278 16.1649 32.6488 16.1785 34.9058Z" fill="#FDCC9B"/>
<path d="M14.4643 34.9153C14.4726 36.2283 13.4148 37.2979 12.103 37.3061C10.7918 37.3132 9.72217 36.2566 9.71392 34.9442C9.70566 33.6312 10.7635 32.5628 12.0747 32.5557C13.3877 32.5463 14.4567 33.6041 14.4643 34.9153Z" fill="#F4B882"/>
<path d="M55.4994 34.6749C55.513 36.9331 53.6926 38.7747 51.4343 38.7877C49.1755 38.8024 47.3334 36.9815 47.3204 34.7232C47.3068 32.4644 49.1272 30.6234 51.386 30.6104C53.6443 30.5963 55.4847 32.4167 55.4994 34.6749Z" fill="#FDCC9B"/>
<path d="M53.7841 34.6848C53.7929 35.9972 52.7351 37.0662 51.4233 37.0745C50.1121 37.0816 49.0425 36.0249 49.0342 34.7113C49.026 33.4001 50.0826 32.3305 51.3968 32.3223C52.708 32.3158 53.7764 33.3724 53.7841 34.6848Z" fill="#F4B882"/>
<path d="M51.3161 36.1321C51.3685 44.8751 44.2573 52.07 35.5144 52.1212L27.9871 52.1637C19.2441 52.2167 12.0487 45.1055 11.9962 36.3637L11.9573 29.5224C11.9049 20.7783 19.0166 13.5834 27.7585 13.5321L35.2869 13.4873C44.0299 13.4361 51.2265 20.5473 51.2778 29.2897L51.3161 36.1321Z" fill="#FDCC9B"/>
<path d="M33.942 40.4643C33.9456 41.2257 32.9708 41.8492 31.7645 41.8574C30.5564 41.8645 29.5741 41.2528 29.5694 40.4896C29.5646 39.7288 30.5405 39.1059 31.748 39.0994C32.9532 39.0912 33.9361 39.7041 33.942 40.4643Z" fill="#F4B882"/>
<path d="M31.7538 43.2368H25.0156C25.0156 43.2368 25.612 48.4498 31.7538 48.4498C37.8979 48.4498 38.4937 43.2368 38.4937 43.2368H31.7538Z" fill="white"/>
<path d="M41.2017 36.2725C41.2235 35.6089 41.5058 34.6613 42.3049 34.6118C43.0987 34.5623 43.3892 35.6867 43.4081 36.2725C43.4234 36.7463 44.16 36.7481 44.1447 36.2725C44.1088 35.1664 43.5395 33.9518 42.3049 33.8752C41.0744 33.798 40.4975 35.2884 40.4651 36.2725C40.4498 36.7475 41.1864 36.7457 41.2017 36.2725Z" fill="#352215"/>
<path d="M19.8726 36.2725C19.8944 35.6084 20.1773 34.6613 20.9764 34.6118C21.7702 34.5623 22.0607 35.6873 22.0796 36.2725C22.0949 36.7463 22.8315 36.7481 22.8162 36.2725C22.7803 35.1664 22.211 33.9518 20.9764 33.8752C19.7459 33.798 19.1684 35.2878 19.136 36.2725C19.1207 36.7475 19.8573 36.7457 19.8726 36.2725Z" fill="#352215"/>
<path d="M39.5792 31.3022C41.2239 29.892 43.4003 30.1065 45.0173 31.4366C45.4122 31.7601 45.8989 31.1384 45.5065 30.8149C43.6325 29.2738 41.0201 29.0287 39.1013 30.6723C38.717 31.0017 39.1908 31.6352 39.5792 31.3022Z" fill="#63453D"/>
<path d="M23.7021 31.3022C22.0573 29.892 19.8816 30.1065 18.2639 31.4366C17.8691 31.7601 17.3823 31.1384 17.7748 30.8149C19.6488 29.2738 22.2606 29.0287 24.1794 30.6723C24.5648 31.0017 24.0898 31.6352 23.7021 31.3022Z" fill="#63453D"/>
<path d="M36.3517 55.002C34.7328 57.7932 28.3741 57.7932 26.7552 55.002C26.7552 55.002 11.5072 54.6326 8 64H31.4465H31.5535H55C51.4934 54.6326 36.3517 55.002 36.3517 55.002Z" fill="#DC5C05"/>
<path d="M13.1415 33.8717C13.1415 33.8717 13.4751 31.0589 14.8682 28.8059C15.6325 27.5719 17.0651 24.5782 19.0912 22.9299C22.5428 20.1231 33.6318 23.9076 44.227 20.8456C44.227 20.8456 43.8952 22.9453 45.7716 25.045C47.6479 27.1453 51.5998 29.8425 51.4896 33.2541C51.4896 33.2541 52.6523 30.8833 54.0885 31.7661C54.0885 31.7661 56.8081 19.621 49.3033 17.1718C49.3033 17.1718 49.5461 11.1538 43.6754 8.0723C36.7528 4.43921 33.3295 1.49383 33.3295 1.49383C33.3295 1.49383 34.2205 3.92945 35.5405 4.76922C35.5405 4.76922 31.69 4.52937 29.2391 1C29.2391 1 27.1895 3.64305 30.3747 5.18586C30.3747 5.18586 27.9131 5.20353 26.9891 3.70669C26.9891 3.70669 26.1051 6.2861 30.5403 6.97913C30.5403 6.97913 25.1799 7.21072 25.6631 3.51634C25.6631 3.51634 21.4902 5.75396 17.9025 10.2162C17.9025 10.2162 19.2267 7.59083 19.9451 7.02274C19.9451 7.02274 16.9037 8.42116 14.9778 13.4527C14.9778 13.4527 11.9971 17.4335 10.8933 21.8085C9.7913 26.1829 9.41708 28.9197 10.0789 31.3694C10.0789 31.3694 12.551 31.0931 13.1415 33.8717Z" fill="#63453D"/>
</g>
<defs>
<clipPath id="clip0_3069_2197">
<rect width="64" height="64" rx="32" fill="white"/>
</clipPath>
</defs>
</svg>
