<svg width="64" height="64" viewBox="0 0 64 64" fill="none" xmlns="http://www.w3.org/2000/svg">
<g clip-path="url(#clip0_3069_2004)">
<circle cx="32" cy="32" r="32" fill="#FD8026"/>
<path d="M15.0365 34.7299C15.0365 34.7299 10.6092 39.3039 12.1197 45.0715C13.6303 50.8391 10.0599 52.487 8 52.7617C8 52.7617 22.6437 55.1841 23.3474 43.149C24.0516 31.1139 17.8159 32.6277 15.0365 34.7299Z" fill="#966544"/>
<path d="M37.8715 45.9448H28.8525V57.7514H37.8715V45.9448Z" fill="#FDCC9B"/>
<path d="M18.8488 31.8506C18.8609 33.956 17.1647 35.671 15.0603 35.6841C12.9543 35.6979 11.2383 34.0011 11.2257 31.8962C11.2136 29.7907 12.9098 28.0736 15.0153 28.0621C17.1196 28.0494 18.8356 29.7468 18.8488 31.8506Z" fill="#FDCC9B"/>
<path d="M17.2502 31.8594C17.2584 33.0826 16.2719 34.0802 15.0497 34.0879C13.8275 34.0944 12.83 33.1096 12.8223 31.8857C12.8146 30.6619 13.8006 29.666 15.0228 29.66C16.2472 29.6512 17.2431 30.6372 17.2502 31.8594Z" fill="#F4B882"/>
<path d="M55.4997 31.6347C55.5124 33.7396 53.8156 35.4567 51.7101 35.4683C49.6052 35.482 47.8881 33.7852 47.876 31.6803C47.8634 29.5748 49.5602 27.8594 51.6651 27.8468C53.7706 27.8336 55.486 29.5303 55.4997 31.6347Z" fill="#FDCC9B"/>
<path d="M53.9 31.6445C53.9088 32.8678 52.9223 33.8637 51.7001 33.8719C50.4779 33.878 49.4804 32.8931 49.4727 31.6693C49.465 30.4471 50.4499 29.4496 51.6754 29.4424C52.8976 29.4364 53.8929 30.4213 53.9 31.6445Z" fill="#F4B882"/>
<path d="M51.5998 32.9935C51.6493 41.1428 45.0203 47.8492 36.871 47.8975L29.8548 47.9371C21.7054 47.9865 14.999 41.3576 14.9496 33.2099L14.9134 26.8331C14.8645 18.6826 21.4923 11.9763 29.6406 11.9285L36.6584 11.8867C44.8078 11.8395 51.5158 18.4668 51.563 26.6167L51.5998 32.9935Z" fill="#FDCC9B"/>
<path d="M35.4049 37.0313C35.4087 37.7404 34.4997 38.3221 33.3752 38.3293C32.2497 38.3359 31.3335 37.7662 31.3291 37.0549C31.3247 36.3458 32.2349 35.7646 33.3599 35.7591C34.4837 35.7514 35.3994 36.3221 35.4049 37.0313Z" fill="#F4B882"/>
<path d="M33.366 40.7139H28.3213C28.3213 40.7139 28.7679 44.1525 33.366 44.1525C37.9658 44.1525 38.4119 40.7139 38.4119 40.7139H33.366Z" fill="white"/>
<path d="M42.1722 33.1242C42.1925 32.5052 42.4556 31.6219 43.201 31.5757C43.9409 31.5296 44.2112 32.5788 44.2293 33.1242C44.2436 33.5658 44.9302 33.5675 44.9159 33.1242C44.8819 32.0937 44.3518 30.9605 43.201 30.8891C42.0541 30.8177 41.5158 32.2063 41.4856 33.1242C41.4713 33.5675 42.1579 33.5658 42.1722 33.1242Z" fill="#352215"/>
<path d="M22.2913 33.1242C22.3117 32.5057 22.5753 31.6224 23.3202 31.5757C24.0601 31.5296 24.3309 32.5782 24.349 33.1242C24.3633 33.5658 25.0499 33.5675 25.0356 33.1242C25.0016 32.0932 24.4709 30.9605 23.3202 30.8891C22.1732 30.8177 21.6349 32.2069 21.6047 33.1242C21.5904 33.5675 22.2771 33.5658 22.2913 33.1242Z" fill="#352215"/>
<path d="M37.5415 51.0031C36.7585 53.246 33 57.5 33 57.5C33 57.5 29.2907 53.1024 28.5581 51.0031C28.5581 51.0031 14.2828 50.4285 11 65H32.9494H33.0501H55C51.7172 50.4295 37.5415 51.0031 37.5415 51.0031Z" fill="#A9BF52"/>
<path d="M41.0681 28.7124C42.3721 28.0241 44.009 28.0554 45.1763 28.9892C45.5042 29.2501 45.9706 28.7893 45.6405 28.5245C44.2304 27.3979 42.3266 27.3067 40.7374 28.1455C40.3634 28.3432 40.6951 28.9085 41.0681 28.7124Z" fill="#6D4D42"/>
<path d="M25.4431 28.7124C24.1385 28.0241 22.5016 28.0554 21.3344 28.9892C21.0075 29.2501 20.5412 28.7893 20.8702 28.5245C22.2802 27.3979 24.1841 27.3067 25.7738 28.1455C26.1473 28.3432 25.8161 28.9085 25.4431 28.7124Z" fill="#6D4D42"/>
<path d="M52.2134 30.8865C52.2134 30.8865 56.4111 6 33.9454 6C9.97405 6 14.291 30.2317 14.291 30.2317C14.291 30.2317 17.7389 27.4632 21.5076 26.4223L22.7765 21.165L23.0913 26.3542L27.4313 25.9378L28.4002 18.8129L29.8839 25.7994C29.8839 25.7994 48.7951 25.3155 52.2134 30.8865Z" fill="#8C5438"/>
</g>
<defs>
<clipPath id="clip0_3069_2004">
<rect width="64" height="64" rx="32" fill="white"/>
</clipPath>
</defs>
</svg>
