<svg width="64" height="64" viewBox="0 0 64 64" fill="none" xmlns="http://www.w3.org/2000/svg">
<g clip-path="url(#clip0_3069_2066)">
<circle cx="32" cy="32" r="32" fill="#FF9F00"/>
<path d="M24.3176 38.3431C22.8579 38.3431 21.5005 38.7685 20.3505 39.4926C20.421 39.1201 20.4614 38.7367 20.4614 38.3436C20.4614 34.9386 17.7003 32.1792 14.2959 32.1792C10.8908 32.1792 8.13086 34.9386 8.13086 38.3436C8.13086 40.1571 8.91859 41.7831 10.165 42.9106C9.24595 43.9874 8.68813 45.3814 8.68813 46.9084C8.68813 50.3134 11.4481 53.0734 14.8531 53.0734C16.5621 53.0734 18.1084 52.3772 19.2251 51.254C20.5594 52.5016 22.3464 53.271 24.3176 53.271C28.4398 53.271 31.7823 49.9295 31.7823 45.8068C31.7823 41.6841 28.4403 38.3431 24.3176 38.3431Z" fill="#350304"/>
<path d="M39.4442 38.3431C40.9039 38.3431 42.2613 38.7685 43.4114 39.4926C43.3408 39.1201 43.3005 38.7367 43.3005 38.3436C43.3005 34.9386 46.0615 32.1792 49.466 32.1792C52.871 32.1792 55.631 34.9386 55.631 38.3436C55.631 40.1571 54.8433 41.7831 53.5968 42.9106C54.5159 43.9874 55.0737 45.3814 55.0737 46.9084C55.0737 50.3134 52.3137 53.0734 48.9087 53.0734C47.1997 53.0734 45.6534 52.3772 44.5367 51.254C43.2025 52.5016 41.4154 53.271 39.4442 53.271C35.3221 53.271 31.9795 49.9295 31.9795 45.8068C31.9795 41.6841 35.3221 38.3431 39.4442 38.3431Z" fill="#350304"/>
<path d="M36 46H27V58H36V46Z" fill="#BF8158"/>
<path d="M17.5128 31.9919C17.5247 34.0552 15.862 35.7372 13.7993 35.7491C11.735 35.763 10.0529 34.0999 10.0411 32.0361C10.0292 29.9728 11.6919 28.2892 13.7552 28.2784C15.8179 28.266 17.4999 29.9297 17.5128 31.9919Z" fill="#BF8158"/>
<path d="M15.9467 32.0004C15.9548 33.1995 14.9878 34.1767 13.7898 34.1848C12.5918 34.1907 11.614 33.2253 11.6065 32.0262C11.599 30.8272 12.5654 29.8505 13.7634 29.8445C14.9636 29.8359 15.9392 30.8024 15.9467 32.0004Z" fill="#AA6944"/>
<path d="M53.4383 31.7802C53.4507 33.8435 51.7875 35.5266 49.7231 35.5379C47.6599 35.5513 45.9768 33.8881 45.9649 31.8249C45.9525 29.7616 47.6157 28.0796 49.679 28.0672C51.7433 28.0543 53.4248 29.7175 53.4383 31.7802Z" fill="#BF8158"/>
<path d="M51.871 31.7899C51.8796 32.989 50.9126 33.9652 49.7146 33.9727C48.5166 33.9792 47.5388 33.0138 47.5313 31.8142C47.5238 30.6162 48.4892 29.6389 49.6904 29.6314C50.8884 29.6255 51.8646 30.5908 51.871 31.7899Z" fill="#AA6944"/>
<path d="M49.6155 33.1129C49.664 41.101 43.1663 47.6746 35.1776 47.7215L28.3003 47.7602C20.3122 47.8087 13.7386 41.3115 13.6901 33.3245L13.6546 27.0739C13.6072 19.0852 20.1044 12.5116 28.0914 12.4647L34.9703 12.4238C42.9584 12.3775 49.5337 18.8736 49.58 26.8623L49.6155 33.1129Z" fill="#BF8158"/>
<path d="M33.7412 37.0698C33.745 37.766 32.8539 38.3362 31.7517 38.3432C30.6485 38.3496 29.7504 37.7902 29.7461 37.0935C29.7418 36.3978 30.6334 35.8287 31.7367 35.8233C32.8388 35.8153 33.7364 36.3758 33.7412 37.0698Z" fill="#AA6944"/>
<path d="M31.7428 40.6799H26.7979C26.7979 40.6799 27.2356 44.0505 31.7428 44.0505C36.2515 44.0505 36.6887 40.6799 36.6887 40.6799H31.7428Z" fill="white"/>
<path d="M42.7285 33.24C42.7285 34.2604 42.1233 35.0949 41.384 35.0949C40.6437 35.0949 40.0391 34.2598 40.0391 33.24C40.0391 32.2208 40.6437 31.3862 41.384 31.3862C42.1233 31.3862 42.7285 32.2208 42.7285 33.24Z" fill="#352215"/>
<path d="M23.2417 33.24C23.2417 34.2604 22.6366 35.0949 21.8968 35.0949C21.1575 35.0949 20.5518 34.2598 20.5518 33.24C20.5518 32.2208 21.1575 31.3862 21.8968 31.3862C22.6366 31.3862 23.2417 32.2208 23.2417 33.24Z" fill="#352215"/>
<path d="M35.9383 50.0033C35.1731 52.4063 33.2509 57.5801 31.3666 57.5006C29.6037 57.4262 27.875 52.2534 27.159 50.0033C27.159 50.0033 13.2082 49.3878 10 65H31.4505H31.5489H53C49.7913 49.3878 35.9383 50.0033 35.9383 50.0033Z" fill="#A86027"/>
<path d="M39.2934 28.9158C40.5717 28.2412 42.1762 28.2719 43.3203 29.1872C43.6418 29.4429 44.0989 28.9912 43.7753 28.7317C42.3932 27.6274 40.527 27.538 38.9693 28.3607C38.6032 28.554 38.9278 29.108 39.2934 28.9158Z" fill="#350304"/>
<path d="M23.9773 28.9158C22.6986 28.2412 21.0941 28.2719 19.9499 29.1872C19.6295 29.4429 19.1724 28.9912 19.4949 28.7317C20.8771 27.6274 22.7433 27.538 24.3015 28.3607C24.6671 28.554 24.3424 29.108 23.9773 28.9158Z" fill="#350304"/>
<path d="M50.4919 21.3252C50.9027 20.4998 51.1391 19.5726 51.1391 18.5873C51.1391 15.1823 48.378 12.4228 44.9736 12.4228C43.9732 12.4228 43.032 12.6662 42.1964 13.0889C41.1825 11.0725 39.1004 9.68601 36.6893 9.68601C35.2878 9.68601 34.0004 10.1587 32.965 10.9459C31.5 8.4347 28.7841 6.74243 25.6672 6.74243C21.4912 6.74243 18.0318 9.77378 17.349 13.7549C14.0199 13.8427 11.3477 16.5617 11.3477 19.9113C11.3477 21.2353 11.7688 22.4586 12.4784 23.4627C11.2212 23.9753 10.335 25.2083 10.335 26.6497C10.335 28.5503 11.8754 30.0913 13.7766 30.0913C15.6778 30.0913 17.2187 28.5503 17.2187 26.6497C17.2187 26.4478 17.1977 26.2512 17.1644 26.059C17.2807 26.0655 17.3953 26.0768 17.5127 26.0768C19.7407 26.0768 21.6871 24.8912 22.7705 23.1198C23.6755 23.4503 24.648 23.6404 25.6677 23.6404C28.4218 23.6404 30.8614 22.317 32.404 20.2769C33.5137 21.3516 35.0229 22.0154 36.6899 22.0154C37.6903 22.0154 38.632 21.7715 39.4676 21.3489C40.4809 23.3653 42.563 24.7523 44.9741 24.7523C44.9784 24.7523 44.9822 24.7517 44.9859 24.7517C44.9811 24.8314 44.9741 24.91 44.9741 24.9908C44.9741 27.187 46.7547 28.9671 48.9504 28.9671C51.1466 28.9671 52.9272 27.187 52.9272 24.9908C52.9261 23.3416 51.922 21.9271 50.4919 21.3252Z" fill="#350304"/>
</g>
<defs>
<clipPath id="clip0_3069_2066">
<rect width="64" height="64" rx="32" fill="white"/>
</clipPath>
</defs>
</svg>
