<svg width="64" height="64" viewBox="0 0 64 64" fill="none" xmlns="http://www.w3.org/2000/svg">
<g clip-path="url(#clip0_3069_2165)">
<circle cx="32" cy="32" r="32" fill="#FF7D25"/>
<path d="M50.5952 50.9591C50.5952 50.9591 42.0898 54.9233 37.0325 55.9829C36.2646 53.4135 36.4986 49.83 36.4102 47.2253C38.4892 45.3855 46.9651 42.5474 48.4184 39.3322C49.1432 37.7281 49.8132 35.8217 50.2723 33.8959C51.0237 34.0296 52.0284 33.2918 52.844 31.8215C52.844 31.5487 51.6831 48.9213 53.4469 53.7595C53.448 53.76 51.5511 53.3782 50.5952 50.9591Z" fill="#8C5438"/>
<path d="M14.3434 50.9589C14.3434 50.9589 21.9313 54.6284 26.9893 55.688C27.7553 53.1187 27.6227 49.0112 27.7117 46.4065C25.6333 44.5667 17.3701 42.5472 15.918 39.3319C15.1932 37.7279 14.4324 35.7449 13.9751 33.819C13.2285 34.4296 12.3092 33.5644 11.4912 32.0947C11.4912 32.0989 13.255 48.9216 11.4912 53.7598C11.4912 53.7598 13.3888 53.378 14.3434 50.9589Z" fill="#8C5438"/>
<path d="M37 45H27V57H37V45Z" fill="#FDCC9B"/>
<path d="M16.6243 30.021C16.6373 32.2792 14.8175 34.1202 12.5593 34.1332C10.2999 34.1479 8.45893 32.3281 8.44538 30.0694C8.433 27.8112 10.2522 25.9684 12.511 25.9566C14.7692 25.9431 16.6107 27.764 16.6243 30.021Z" fill="#FDCC9B"/>
<path d="M14.9106 30.0305C14.9194 31.3435 13.861 32.4131 12.5492 32.4213C11.238 32.4284 10.1685 31.3718 10.1602 30.0594C10.152 28.7464 11.2097 27.678 12.5209 27.671C13.8339 27.6615 14.9023 28.7193 14.9106 30.0305Z" fill="#F4B882"/>
<path d="M55.9452 29.7901C55.9588 32.0483 54.1384 33.8899 51.8796 33.9028C49.6208 33.9176 47.7793 32.0966 47.7657 29.8384C47.7521 27.5796 49.5725 25.7386 51.8313 25.7257C54.0895 25.7115 55.9299 27.5319 55.9452 29.7901Z" fill="#FDCC9B"/>
<path d="M54.2293 29.8C54.2387 31.1124 53.1804 32.1814 51.8686 32.1897C50.5574 32.1967 49.4878 31.1401 49.4795 29.8265C49.4713 28.5154 50.5279 27.4458 51.842 27.4375C53.1526 27.431 54.2216 28.4877 54.2293 29.8Z" fill="#F4B882"/>
<path d="M51.7609 31.2473C51.8134 39.9902 44.7028 47.185 35.9594 47.2362L28.4322 47.2787C19.6893 47.3317 12.494 40.2206 12.4415 31.4789L12.4026 24.6377C12.3502 15.8936 19.4613 8.69886 28.203 8.64759L35.7319 8.60281C44.4748 8.55155 51.6707 15.6626 51.722 24.4049L51.7609 31.2473Z" fill="#FDCC9B"/>
<path d="M34.3873 35.5793C34.3914 36.3406 33.4161 36.9641 32.2098 36.9724C31.0017 36.9794 30.0194 36.3678 30.0147 35.6046C30.01 34.8438 30.9858 34.2209 32.1933 34.2144C33.399 34.2062 34.3814 34.8191 34.3873 35.5793Z" fill="#F4B882"/>
<path d="M32.2002 39.5305H26.7881C26.7881 39.5305 27.2672 43.2196 32.2002 43.2196C37.135 43.2196 37.6136 39.5305 37.6136 39.5305H32.2002Z" fill="white"/>
<path d="M44.2229 31.3876C44.2229 32.5043 43.5605 33.4172 42.7508 33.4172C41.9411 33.4172 41.2793 32.5037 41.2793 31.3876C41.2793 30.2709 41.9411 29.3586 42.7508 29.3586C43.5605 29.3586 44.2229 30.2709 44.2229 31.3876Z" fill="#352215"/>
<path d="M22.8947 31.3876C22.8947 32.5043 22.2329 33.4172 21.4232 33.4172C20.6135 33.4172 19.9512 32.5037 19.9512 31.3876C19.9512 30.2709 20.6135 29.3586 21.4232 29.3586C22.2329 29.3581 22.8947 30.2709 22.8947 31.3876Z" fill="#352215"/>
<path d="M36.9546 50.0031C36.1005 52.2468 33.9547 57.0748 31.8514 56.9996C29.8835 56.9302 27.9538 52.1022 27.1546 50.0031C27.1546 50.0031 11.5818 49.4286 8 64H31.9451H32.0543H56C52.4176 49.4286 36.9546 50.0031 36.9546 50.0031Z" fill="#059D86"/>
<path d="M40.4631 26.6543C41.8621 25.9153 43.6188 25.9489 44.8711 26.9513C45.2229 27.2312 45.7232 26.7362 45.369 26.4528C43.8563 25.2441 41.8138 25.1463 40.1089 26.0467C39.7076 26.2583 40.0629 26.8653 40.4631 26.6543Z" fill="#6D4D42"/>
<path d="M23.7003 26.6543C22.3007 25.9153 20.5446 25.9489 19.2924 26.9513C18.9417 27.2312 18.4414 26.7362 18.7944 26.4528C20.3071 25.2441 22.3496 25.1463 24.0551 26.0467C24.4552 26.2583 24.1005 26.8653 23.7003 26.6543Z" fill="#6D4D42"/>
<path d="M13.6222 27.6726C13.6222 27.6726 14.9664 23.3289 15.9529 22.5392C15.9529 22.5392 40.8786 26.0751 42.5151 14.0645C42.5151 14.0645 44.5381 20.218 49.645 23.2158C50.7824 23.8828 51.3092 27.6715 51.3092 27.6715C51.3092 27.6715 53.1926 25.3791 54.3276 26.56C54.3276 26.56 55.4331 21.637 51.5072 14.0368C47.4787 6.23858 40.6464 4.37756 33.3603 5.93862C33.3603 5.93862 27.3252 4.42705 21.8276 7.13312C16.3289 9.83919 14.403 12.7209 12.7105 16.1642C11.0192 19.6075 10.7476 26.3827 11.0664 26.3603C12.7795 26.2406 13.6222 27.6726 13.6222 27.6726Z" fill="#8C5438"/>
</g>
<defs>
<clipPath id="clip0_3069_2165">
<rect width="64" height="64" rx="32" fill="white"/>
</clipPath>
</defs>
</svg>
