<svg width="64" height="64" viewBox="0 0 64 64" fill="none" xmlns="http://www.w3.org/2000/svg">
<g clip-path="url(#clip0_3069_2133)">
<circle cx="32" cy="32" r="32" fill="#803520"/>
<path d="M37.0749 45.7778H27.3984V55.6269H37.0749V45.7778Z" fill="#BF8158"/>
<path d="M16.6652 30.6575C16.6787 32.9158 14.8584 34.7568 12.6013 34.7697C10.3413 34.7845 8.50034 32.9647 8.48737 30.7059C8.47441 28.4476 10.2942 26.6049 12.553 26.5931C14.8112 26.5795 16.6516 28.4005 16.6652 30.6575Z" fill="#BF8158"/>
<path d="M14.9516 30.667C14.9605 31.98 13.9021 33.0496 12.5909 33.0578C11.2796 33.0649 10.2095 32.0083 10.2012 30.6959C10.1936 29.3829 11.2508 28.3145 12.5626 28.3074C13.8755 28.298 14.9434 29.3558 14.9516 30.667Z" fill="#AA6944"/>
<path d="M55.9873 30.4266C56.0014 32.6848 54.1804 34.5264 51.9222 34.5394C49.6634 34.5541 47.8212 32.7331 47.8077 30.4749C47.7947 28.2161 49.6145 26.3751 51.8739 26.3621C54.1315 26.348 55.9719 28.1684 55.9873 30.4266Z" fill="#BF8158"/>
<path d="M54.271 30.4365C54.2798 31.7489 53.2214 32.8179 51.9102 32.8262C50.599 32.8332 49.5288 31.7766 49.5206 30.463C49.5123 29.1518 50.5689 28.0823 51.8837 28.074C53.1949 28.0675 54.2633 29.1242 54.271 30.4365Z" fill="#AA6944"/>
<path d="M51.8029 31.8838C51.8553 40.6267 44.7436 47.8216 36.0012 47.8728L28.4734 47.9153C19.7298 47.9683 12.535 40.8571 12.4825 32.1154L12.4436 25.2741C12.3912 16.5299 19.503 9.3351 28.2447 9.28383L35.7731 9.23905C44.5161 9.18778 51.7127 16.2989 51.7634 25.0413L51.8029 31.8838Z" fill="#BF8158"/>
<path d="M34.4283 36.216C34.4325 36.9774 33.4572 37.6009 32.2508 37.6091C31.0434 37.6162 30.061 37.0045 30.0557 36.2413C30.0516 35.4805 31.0269 34.8576 32.2343 34.8512C33.4401 34.8429 34.423 35.4558 34.4283 36.216Z" fill="#AA6944"/>
<path d="M44.2649 32.0241C44.2649 33.1408 43.6025 34.0537 42.7934 34.0537C41.9837 34.0537 41.3213 33.1402 41.3213 32.0241C41.3213 30.9074 41.9837 29.9951 42.7934 29.9951C43.6025 29.9945 44.2649 30.9074 44.2649 32.0241Z" fill="#352215"/>
<path d="M22.9358 32.0241C22.9358 33.1408 22.2734 34.0537 21.4637 34.0537C20.6546 34.0537 19.9922 33.1402 19.9922 32.0241C19.9922 30.9074 20.6546 29.9951 21.4637 29.9951C22.2734 29.9945 22.9358 30.9074 22.9358 32.0241Z" fill="#352215"/>
<path d="M40.0664 27.0539C41.7112 25.6437 43.8869 25.8582 45.5045 27.1883C45.8994 27.5118 46.3861 26.8901 45.9937 26.5666C44.1197 25.0255 41.5079 24.7804 39.5891 26.424C39.2037 26.7534 39.6787 27.3869 40.0664 27.0539Z" fill="#2D2C2B"/>
<path d="M24.1893 27.0539C22.5446 25.6437 20.3689 25.8582 18.7512 27.1883C18.3564 27.5118 17.8696 26.8901 18.2621 26.5666C20.1361 25.0255 22.7479 24.7804 24.6667 26.424C25.0515 26.7534 24.5771 27.3869 24.1893 27.0539Z" fill="#2D2C2B"/>
<path d="M27.0877 40.0709C28.5616 43.4842 35.8507 43.5219 37.1696 39.9631C37.3729 39.4162 36.5007 39.184 36.3004 39.7238C35.2396 42.5837 29.0077 42.2596 27.8662 39.6154C27.6352 39.0838 26.8585 39.5429 27.0877 40.0709Z" fill="#A9703B"/>
<path d="M36.955 51.0028C35.3016 55.0347 28.8076 55.0347 27.1543 51.0028C27.1543 51.0028 11.5812 50.4694 8 64H31.9448H32.0546H56C52.4182 50.4694 36.955 51.0028 36.955 51.0028Z" fill="#FCB316"/>
<path d="M32.3946 5.0257C32.3946 5.0257 9.25897 4.33031 10.6374 27.338C10.6374 27.338 12.9415 27.5184 13.535 30.4513C13.535 30.4513 13.4242 19.5439 16.4167 18.1873C19.4086 16.8301 26.9016 19.68 32.3946 19.68C37.8875 19.68 45.3823 16.8301 48.3736 18.1873C51.3655 19.5444 51.2542 30.4513 51.2542 30.4513C51.8476 27.5178 54.153 27.338 54.153 27.338C55.5314 4.3309 32.3946 5.0257 32.3946 5.0257Z" fill="#350304"/>
</g>
<defs>
<clipPath id="clip0_3069_2133">
<rect width="64" height="64" rx="32" fill="white"/>
</clipPath>
</defs>
</svg>
